<svg xmlns="http://www.w3.org/2000/svg" xmlns:xlink="http://www.w3.org/1999/xlink" width="3000" zoomAndPan="magnify" viewBox="0 0 2250 2250.000011" height="3000" preserveAspectRatio="xMidYMid meet" version="1.0"><defs><clipPath id="1131d8b58b"><path d="M 492.113281 1165 L 1757.550781 1165 L 1757.550781 1968.597656 L 492.113281 1968.597656 Z M 492.113281 1165 " clip-rule="nonzero"/></clipPath><clipPath id="210343caa3"><path d="M 790 448.273438 L 1459 448.273438 L 1459 1118 L 790 1118 Z M 790 448.273438 " clip-rule="nonzero"/></clipPath></defs><g clip-path="url(#1131d8b58b)"><path fill="#000000" d="M 1374.003906 1166.15625 C 1480.792969 1170.605469 1576.011719 1216.890625 1645.421875 1288.984375 C 1714.835938 1361.082031 1757.550781 1458.988281 1757.550781 1566.683594 L 1757.550781 1941.402344 C 1757.550781 1956.53125 1745.09375 1968.101562 1730.855469 1968.101562 L 518.808594 1968.101562 C 503.683594 1968.101562 492.113281 1956.53125 492.113281 1941.402344 L 492.113281 1566.683594 C 492.113281 1458.988281 534.828125 1361.082031 604.242188 1288.984375 C 673.652344 1216.890625 769.761719 1169.71875 877.441406 1166.15625 L 877.441406 1165.265625 C 886.339844 1165.265625 895.238281 1169.71875 899.6875 1176.835938 C 926.382812 1211.550781 960.199219 1240.03125 998.464844 1259.613281 C 1036.730469 1278.304688 1079.449219 1288.984375 1124.832031 1288.984375 C 1170.21875 1288.984375 1212.933594 1278.304688 1250.308594 1259.613281 C 1289.464844 1240.03125 1323.28125 1211.550781 1349.976562 1176.835938 L 1371.335938 1191.96875 L 1349.976562 1175.949219 C 1355.316406 1168.828125 1365.105469 1164.375 1374.003906 1166.15625 Z M 1374.003906 1166.15625 " fill-opacity="1" fill-rule="nonzero"/></g><g clip-path="url(#210343caa3)"><path fill="#000000" d="M 1124.832031 448.765625 C 1216.492188 448.765625 1300.140625 486.148438 1360.65625 546.671875 C 1421.167969 607.199219 1458.542969 690.863281 1458.542969 783.429688 C 1458.542969 875.996094 1421.167969 958.773438 1360.65625 1019.296875 C 1300.140625 1079.820312 1216.492188 1117.203125 1124.832031 1117.203125 C 1032.28125 1117.203125 948.632812 1079.820312 888.117188 1019.296875 C 827.605469 958.773438 790.230469 875.996094 790.230469 783.429688 C 790.230469 690.863281 827.605469 607.199219 888.117188 546.671875 C 948.632812 486.148438 1032.28125 448.765625 1124.832031 448.765625 Z M 1124.832031 448.765625 " fill-opacity="1" fill-rule="nonzero"/></g></svg>