<svg xmlns="http://www.w3.org/2000/svg" xmlns:xlink="http://www.w3.org/1999/xlink" width="3000" zoomAndPan="magnify" viewBox="0 0 2250 2250.000011" height="3000" preserveAspectRatio="xMidYMid meet" version="1.0"><defs><g/><clipPath id="7ccb8a02f6"><rect x="0" width="469" y="0" height="188"/></clipPath><clipPath id="d115020eb6"><rect x="0" width="641" y="0" height="241"/></clipPath></defs><path fill="#2f2e2d" d="M 1916.757812 1693.433594 C 1856.550781 1645.851562 1796.03125 1598.167969 1735.828125 1550.796875 C 1669.777344 1498.730469 1603.832031 1446.558594 1537.15625 1394.070312 C 1588.285156 1295.152344 1611.867188 1192.792969 1612.597656 1093.769531 C 1612.699219 1088.136719 1597.675781 1096.589844 1586.40625 1102.746094 C 1576.492188 1108.273438 1564.910156 1111.089844 1553.015625 1111.089844 C 1537.15625 1111.089844 1521.398438 1105.980469 1506.894531 1095.960938 C 1504.707031 1094.398438 1500.113281 1093.875 1500.113281 1095.335938 C 1498.132812 1358.175781 1293.511719 1595.769531 1011.890625 1618.722656 C 739.238281 1641.261719 476.503906 1447.496094 441.128906 1152.308594 C 410.871094 898.648438 546.097656 677.023438 776.59375 594.902344 C 759.898438 573.722656 724.109375 509.238281 715.867188 496.507812 C 619.347656 534.382812 545.367188 590.519531 475.5625 674.621094 C 268.546875 923.480469 275.953125 1280.753906 490.691406 1520.847656 C 702.511719 1758.441406 1104.859375 1824.175781 1399.734375 1570.203125 C 1404.847656 1575.628906 1410.066406 1582.726562 1416.742188 1588.152344 C 1536.53125 1683.105469 1656.316406 1778.058594 1776.730469 1872.695312 C 1830.777344 1915.164062 1900.585938 1908.171875 1941.175781 1856.941406 C 1981.136719 1806.125 1970.808594 1736.527344 1916.757812 1693.433594 " fill-opacity="1" fill-rule="nonzero"/><path fill="#2f2e2d" d="M 782.542969 484.820312 C 782.542969 484.820312 927.164062 822.058594 1306.554688 654.171875 C 1304.574219 653.753906 1298.835938 652.398438 1289.863281 650.308594 C 1278.800781 647.597656 1262.941406 643.632812 1244.160156 638.625 C 1225.167969 633.824219 1203.359375 627.25 1179.988281 620.570312 C 1168.300781 617.234375 1156.300781 613.269531 1144.09375 609.40625 C 1131.886719 605.546875 1119.46875 601.894531 1107.15625 597.511719 C 1094.84375 593.339844 1082.632812 588.957031 1070.53125 584.675781 C 1058.53125 580.398438 1046.53125 576.539062 1035.367188 571.738281 C 1023.992188 567.253906 1013.140625 562.765625 1002.707031 558.695312 C 992.480469 554.417969 982.464844 550.972656 973.699219 546.695312 C 940.726562 531.148438 917.875 520.507812 915.265625 519.253906 C 917.980469 520.402344 941.039062 530.105469 974.742188 544.296875 C 983.613281 548.261719 993.628906 551.289062 1004.167969 555.148438 C 1014.601562 558.90625 1025.664062 562.871094 1037.035156 566.9375 C 1048.410156 571.21875 1060.515625 574.554688 1072.722656 578.519531 C 1084.824219 582.277344 1097.242188 586.035156 1109.554688 589.789062 C 1121.972656 593.546875 1134.492188 596.78125 1146.804688 600.226562 C 1159.117188 603.460938 1171.117188 607.007812 1182.910156 609.929688 C 1206.492188 615.5625 1228.402344 621.199219 1247.394531 625.265625 C 1266.28125 629.546875 1282.140625 632.882812 1293.097656 635.074219 C 1302.488281 636.847656 1308.433594 638.101562 1310.105469 638.414062 C 1301.027344 622.761719 1284.433594 596.574219 1282.035156 593.128906 C 1249.0625 544.816406 1205.449219 500.261719 1155.882812 468.75 C 1129.171875 451.742188 1094.007812 434.421875 1062.390625 429.308594 C 982.464844 416.683594 904.832031 446.527344 829.808594 470.316406 C 826.15625 471.464844 782.960938 485.65625 782.542969 484.820312 " fill-opacity="1" fill-rule="nonzero"/><path fill="#2f2e2d" d="M 1534.757812 1056.3125 C 1521.609375 1047.128906 1514.511719 1034.191406 1512.320312 1015.617188 L 1510.234375 996 C 1507 966.261719 1503.660156 935.480469 1498.132812 905.117188 C 1478.410156 798.058594 1433.335938 720.324219 1360.1875 667.316406 C 1356.328125 664.394531 1352.363281 660.429688 1349.234375 655.839844 C 1338.484375 640.398438 1340.46875 632.675781 1343.390625 627.773438 C 1344.539062 625.894531 1345.789062 624.640625 1347.355469 623.804688 C 1351.007812 621.824219 1356.851562 622.554688 1365.199219 626.3125 C 1369.164062 627.980469 1373.023438 630.066406 1376.882812 632.363281 C 1424.882812 659.910156 1464.636719 702.585938 1501.886719 766.652344 C 1504.496094 772.914062 1507.835938 780.425781 1511.175781 787.835938 C 1518.375 803.902344 1525.78125 820.496094 1532.148438 836.980469 C 1554.371094 894.578125 1567.9375 956.664062 1574.824219 1032.417969 C 1575.972656 1045.25 1571.589844 1055.683594 1563.136719 1060.277344 C 1555.101562 1064.761719 1544.667969 1063.300781 1534.757812 1056.3125 " fill-opacity="1" fill-rule="nonzero"/><path fill="#2f2e2d" d="M 1377.925781 590.832031 C 1379.285156 589.476562 1383.144531 585.511719 1389.300781 579.355469 C 1396.8125 571.84375 1407.875 560.992188 1421.230469 548.367188 C 1434.273438 535.53125 1450.34375 521.238281 1467.246094 505.6875 C 1475.699219 497.863281 1484.777344 490.246094 1493.851562 482.210938 C 1495.730469 480.648438 1497.714844 478.976562 1499.488281 477.414062 L 1499.59375 477.414062 C 1506.792969 471.046875 1513.992188 464.683594 1521.503906 458.527344 C 1531 450.699219 1540.496094 442.980469 1549.992188 435.363281 C 1559.277344 427.847656 1568.355469 420.128906 1577.640625 413.34375 C 1586.929688 406.5625 1595.796875 399.988281 1604.25 393.625 C 1606.230469 392.269531 1608.109375 390.703125 1609.988281 389.347656 L 1609.675781 393.832031 C 1608.527344 394.773438 1607.378906 395.605469 1606.335938 396.546875 C 1598.195312 403.121094 1589.640625 410.007812 1580.667969 417.207031 C 1571.589844 424.195312 1562.929688 432.335938 1553.851562 440.160156 C 1544.878906 448.089844 1535.800781 456.125 1526.511719 464.265625 C 1521.398438 468.855469 1516.390625 473.550781 1511.488281 478.351562 L 1511.382812 478.351562 C 1507.625 481.898438 1503.765625 485.550781 1499.90625 488.996094 C 1491.246094 497.34375 1482.480469 505.273438 1474.339844 513.304688 C 1458.167969 529.480469 1442.828125 544.296875 1430.203125 557.546875 C 1417.472656 570.695312 1407.039062 581.757812 1399.945312 589.476562 C 1393.789062 596.15625 1389.925781 600.328125 1388.882812 601.476562 C 1405.890625 601.894531 1435.109375 601.476562 1439.074219 601.269531 C 1450.65625 600.640625 1462.445312 599.496094 1474.132812 597.929688 C 1516.078125 592.503906 1558.023438 581.128906 1595.902344 563.390625 C 1597.675781 562.558594 1599.449219 561.828125 1601.117188 560.992188 C 1627.933594 547.84375 1659.132812 528.226562 1678.855469 505.273438 C 1682.296875 501.203125 1685.636719 497.027344 1688.765625 492.75 C 1716.730469 454.875 1731.964844 410.320312 1743.964844 364.929688 C 1749.808594 342.601562 1754.921875 320.167969 1760.347656 298.148438 C 1761.285156 294.707031 1771.09375 252.863281 1772.035156 253.074219 C 1772.035156 253.074219 1429.683594 203.300781 1377.925781 590.832031 " fill-opacity="1" fill-rule="nonzero"/><g transform="matrix(1, 0, 0, 1, 726, 837)"><g clip-path="url(#7ccb8a02f6)"><g fill="#000000" fill-opacity="1"><g transform="translate(0.841009, 147.150215)"><g><path d="M 91.203125 -53.15625 C 91.203125 -58.664062 89.742188 -63.785156 86.828125 -68.515625 C 83.921875 -73.242188 80.101562 -77.0625 75.375 -79.96875 C 70.644531 -82.882812 65.523438 -84.34375 60.015625 -84.34375 C 54.609375 -84.34375 49.515625 -82.882812 44.734375 -79.96875 C 39.953125 -77.0625 36.109375 -73.242188 33.203125 -68.515625 C 30.296875 -63.785156 28.84375 -58.664062 28.84375 -53.15625 C 28.84375 -47.75 30.296875 -42.65625 33.203125 -37.875 C 36.109375 -33.09375 39.953125 -29.222656 44.734375 -26.265625 C 49.515625 -23.304688 54.609375 -21.828125 60.015625 -21.828125 C 65.523438 -21.828125 70.644531 -23.304688 75.375 -26.265625 C 80.101562 -29.222656 83.921875 -33.09375 86.828125 -37.875 C 89.742188 -42.65625 91.203125 -47.75 91.203125 -53.15625 Z M 114.578125 -53 C 114.578125 -45.726562 113.117188 -38.789062 110.203125 -32.1875 C 107.296875 -25.59375 103.320312 -19.773438 98.28125 -14.734375 C 93.25 -9.691406 87.457031 -5.710938 80.90625 -2.796875 C 74.363281 0.109375 67.398438 1.5625 60.015625 1.5625 C 52.742188 1.5625 45.804688 0.109375 39.203125 -2.796875 C 32.609375 -5.710938 26.789062 -9.691406 21.75 -14.734375 C 16.707031 -19.773438 12.726562 -25.59375 9.8125 -32.1875 C 6.90625 -38.789062 5.453125 -45.726562 5.453125 -53 C 5.453125 -60.382812 6.90625 -67.347656 9.8125 -73.890625 C 12.726562 -80.441406 16.707031 -86.234375 21.75 -91.265625 C 26.789062 -96.304688 32.609375 -100.28125 39.203125 -103.1875 C 45.804688 -106.101562 52.742188 -107.5625 60.015625 -107.5625 C 67.398438 -107.5625 74.363281 -106.101562 80.90625 -103.1875 C 87.457031 -100.28125 93.25 -96.304688 98.28125 -91.265625 C 103.320312 -86.234375 107.296875 -80.441406 110.203125 -73.890625 C 113.117188 -67.347656 114.578125 -60.382812 114.578125 -53 Z M 114.578125 -53 "/></g></g></g><g fill="#000000" fill-opacity="1"><g transform="translate(120.867763, 147.150215)"><g><path d="M 44.734375 -16.21875 C 48.890625 -16.21875 52.109375 -17.097656 54.390625 -18.859375 C 56.679688 -20.628906 58.296875 -22.890625 59.234375 -25.640625 C 60.171875 -28.398438 60.640625 -31.234375 60.640625 -34.140625 C 60.640625 -37.046875 60.144531 -39.847656 59.15625 -42.546875 C 58.164062 -45.253906 56.53125 -47.488281 54.25 -49.25 C 51.96875 -51.019531 48.796875 -51.90625 44.734375 -51.90625 C 40.679688 -51.90625 37.484375 -51.019531 35.140625 -49.25 C 32.804688 -47.488281 31.144531 -45.253906 30.15625 -42.546875 C 29.175781 -39.847656 28.6875 -37.046875 28.6875 -34.140625 C 28.6875 -31.234375 29.148438 -28.398438 30.078125 -25.640625 C 31.015625 -22.890625 32.648438 -20.628906 34.984375 -18.859375 C 37.328125 -17.097656 40.578125 -16.21875 44.734375 -16.21875 Z M 44.734375 -70.15625 C 51.910156 -70.15625 58.457031 -68.644531 64.375 -65.625 C 70.300781 -62.613281 75.03125 -58.429688 78.5625 -53.078125 C 82.101562 -47.722656 83.875 -41.460938 83.875 -34.296875 C 83.875 -27.023438 82.128906 -20.710938 78.640625 -15.359375 C 75.160156 -10.003906 70.457031 -5.867188 64.53125 -2.953125 C 58.613281 -0.046875 52.015625 1.40625 44.734375 1.40625 C 37.460938 1.40625 30.835938 -0.046875 24.859375 -2.953125 C 18.890625 -5.867188 14.160156 -10.003906 10.671875 -15.359375 C 7.191406 -20.710938 5.453125 -27.023438 5.453125 -34.296875 C 5.453125 -41.460938 7.21875 -47.722656 10.75 -53.078125 C 14.289062 -58.429688 19.046875 -62.613281 25.015625 -65.625 C 30.992188 -68.644531 37.566406 -70.15625 44.734375 -70.15625 Z M 44.734375 -70.15625 "/></g></g></g><g fill="#000000" fill-opacity="1"><g transform="translate(210.186389, 147.150215)"><g><path d="M 32.734375 -34.296875 C 32.734375 -31.285156 33.460938 -28.476562 34.921875 -25.875 C 36.378906 -23.28125 38.328125 -21.175781 40.765625 -19.5625 C 43.203125 -17.945312 45.984375 -17.140625 49.109375 -17.140625 C 52.222656 -17.140625 55 -17.945312 57.4375 -19.5625 C 59.882812 -21.175781 61.832031 -23.28125 63.28125 -25.875 C 64.738281 -28.476562 65.46875 -31.285156 65.46875 -34.296875 C 65.46875 -37.304688 64.738281 -40.109375 63.28125 -42.703125 C 61.832031 -45.304688 59.882812 -47.410156 57.4375 -49.015625 C 55 -50.628906 52.222656 -51.4375 49.109375 -51.4375 C 45.984375 -51.4375 43.203125 -50.628906 40.765625 -49.015625 C 38.328125 -47.410156 36.378906 -45.304688 34.921875 -42.703125 C 33.460938 -40.109375 32.734375 -37.304688 32.734375 -34.296875 Z M 32.734375 38.96875 L 9.359375 38.96875 L 9.359375 -68.75 L 32.734375 -68.75 L 32.734375 -60.328125 C 35.753906 -64.066406 39.316406 -66.664062 43.421875 -68.125 C 47.523438 -69.582031 51.8125 -70.3125 56.28125 -70.3125 C 62.820312 -70.3125 68.664062 -68.617188 73.8125 -65.234375 C 78.957031 -61.859375 83.007812 -57.441406 85.96875 -51.984375 C 88.9375 -46.535156 90.421875 -40.640625 90.421875 -34.296875 C 90.421875 -27.953125 88.9375 -22.050781 85.96875 -16.59375 C 83.007812 -11.144531 78.957031 -6.753906 73.8125 -3.421875 C 68.664062 -0.0976562 62.820312 1.5625 56.28125 1.5625 C 51.8125 1.5625 47.367188 0.804688 42.953125 -0.703125 C 38.535156 -2.210938 35.128906 -4.734375 32.734375 -8.265625 Z M 32.734375 38.96875 "/></g></g></g><g fill="#000000" fill-opacity="1"><g transform="translate(306.051918, 147.150215)"><g><path d="M 72.953125 -47.859375 L 50.046875 -47.859375 C 49.628906 -50.972656 48.25 -53.078125 45.90625 -54.171875 C 43.570312 -55.265625 41.257812 -55.8125 38.96875 -55.8125 C 36.6875 -55.8125 34.554688 -55.265625 32.578125 -54.171875 C 30.609375 -53.078125 29.625 -51.492188 29.625 -49.421875 C 29.625 -47.859375 30.6875 -46.6875 32.8125 -45.90625 C 34.945312 -45.125 37.703125 -44.5 41.078125 -44.03125 C 44.453125 -43.570312 48.035156 -42.976562 51.828125 -42.25 C 55.628906 -41.519531 59.21875 -40.375 62.59375 -38.8125 C 65.96875 -37.257812 68.71875 -35.050781 70.84375 -32.1875 C 72.976562 -29.332031 74.046875 -25.460938 74.046875 -20.578125 C 74.046875 -15.171875 72.613281 -10.859375 69.75 -7.640625 C 66.894531 -4.421875 62.921875 -2.082031 57.828125 -0.625 C 52.742188 0.832031 46.875 1.5625 40.21875 1.5625 C 33.46875 1.5625 27.363281 0.65625 21.90625 -1.15625 C 16.445312 -2.976562 12.050781 -5.890625 8.71875 -9.890625 C 5.394531 -13.898438 3.53125 -19.125 3.125 -25.5625 L 26.34375 -25.5625 C 26.34375 -22.132812 27.171875 -19.664062 28.828125 -18.15625 C 30.492188 -16.65625 32.46875 -15.695312 34.75 -15.28125 C 37.039062 -14.863281 39.019531 -14.65625 40.6875 -14.65625 C 43.382812 -14.65625 45.695312 -15.144531 47.625 -16.125 C 49.550781 -17.113281 50.515625 -18.546875 50.515625 -20.421875 C 50.515625 -22.804688 49.445312 -24.625 47.3125 -25.875 C 45.175781 -27.125 42.421875 -28.0625 39.046875 -28.6875 C 35.671875 -29.3125 32.085938 -29.929688 28.296875 -30.546875 C 24.503906 -31.171875 20.914062 -32.082031 17.53125 -33.28125 C 14.15625 -34.476562 11.398438 -36.269531 9.265625 -38.65625 C 7.140625 -41.050781 6.078125 -44.328125 6.078125 -48.484375 C 6.078125 -55.546875 8.832031 -60.945312 14.34375 -64.6875 C 19.851562 -68.4375 28.269531 -70.3125 39.59375 -70.3125 C 48.632812 -70.3125 56.191406 -68.539062 62.265625 -65 C 68.347656 -61.46875 71.910156 -55.753906 72.953125 -47.859375 Z M 72.953125 -47.859375 "/></g></g></g><g fill="#000000" fill-opacity="1"><g transform="translate(384.770775, 147.150215)"><g><path d="M 8.109375 -12.15625 C 8.109375 -15.894531 9.429688 -19.113281 12.078125 -21.8125 C 14.734375 -24.519531 17.984375 -25.875 21.828125 -25.875 C 25.566406 -25.875 28.785156 -24.519531 31.484375 -21.8125 C 34.191406 -19.113281 35.546875 -15.894531 35.546875 -12.15625 C 35.546875 -8.3125 34.191406 -5.0625 31.484375 -2.40625 C 28.785156 0.238281 25.566406 1.5625 21.828125 1.5625 C 17.984375 1.5625 14.734375 0.238281 12.078125 -2.40625 C 9.429688 -5.0625 8.109375 -8.3125 8.109375 -12.15625 Z M 13.25 -35.703125 L 10.140625 -116.921875 L 33.515625 -116.921875 L 30.40625 -35.703125 Z M 13.25 -35.703125 "/></g></g></g><g fill="#000000" fill-opacity="1"><g transform="translate(428.428018, 147.150215)"><g/></g></g></g></g><g transform="matrix(1, 0, 0, 1, 707, 1038)"><g clip-path="url(#d115020eb6)"><g fill="#000000" fill-opacity="1"><g transform="translate(0.307407, 87.930816)"><g><path d="M 13.359375 -6.453125 L 35.75 -6.453125 L 35.75 0 L 6.90625 0 L 6.90625 -62.65625 L 13.359375 -62.65625 Z M 13.359375 -6.453125 "/></g></g></g><g fill="#000000" fill-opacity="1"><g transform="translate(37.900561, 87.930816)"><g><path d="M 40.078125 -20.453125 C 40.078125 -24.503906 38.632812 -27.972656 35.75 -30.859375 C 32.863281 -33.753906 29.394531 -35.203125 25.34375 -35.203125 C 21.28125 -35.203125 17.804688 -33.753906 14.921875 -30.859375 C 12.035156 -27.972656 10.59375 -24.503906 10.59375 -20.453125 C 10.59375 -16.460938 12.035156 -13.023438 14.921875 -10.140625 C 17.804688 -7.253906 21.28125 -5.8125 25.34375 -5.8125 C 29.394531 -5.8125 32.863281 -7.253906 35.75 -10.140625 C 38.632812 -13.023438 40.078125 -16.460938 40.078125 -20.453125 Z M 46.53125 -20.453125 C 46.53125 -14.554688 44.472656 -9.582031 40.359375 -5.53125 C 36.117188 -1.414062 31.113281 0.640625 25.34375 0.640625 C 19.5625 0.640625 14.582031 -1.414062 10.40625 -5.53125 C 6.226562 -9.582031 4.140625 -14.554688 4.140625 -20.453125 C 4.140625 -26.285156 6.226562 -31.289062 10.40625 -35.46875 C 14.519531 -39.582031 19.5 -41.640625 25.34375 -41.640625 C 31.175781 -41.640625 36.179688 -39.582031 40.359375 -35.46875 C 44.472656 -31.289062 46.53125 -26.285156 46.53125 -20.453125 Z M 46.53125 -20.453125 "/></g></g></g><g fill="#000000" fill-opacity="1"><g transform="translate(88.577597, 87.930816)"><g><path d="M 39.71875 -20.265625 C 39.71875 -24.203125 38.363281 -27.644531 35.65625 -30.59375 C 32.894531 -33.539062 29.488281 -35.015625 25.4375 -35.015625 C 21.5 -35.015625 18.117188 -33.539062 15.296875 -30.59375 C 12.535156 -27.707031 11.15625 -24.265625 11.15625 -20.265625 C 11.15625 -16.273438 12.535156 -12.835938 15.296875 -9.953125 C 18.117188 -7.003906 21.5 -5.53125 25.4375 -5.53125 C 29.488281 -5.53125 32.894531 -7.003906 35.65625 -9.953125 C 38.363281 -12.898438 39.71875 -16.335938 39.71875 -20.265625 Z M 10.96875 5.53125 C 11.582031 8.050781 12.898438 10.289062 14.921875 12.25 C 17.753906 15.132812 21.164062 16.578125 25.15625 16.578125 C 29.144531 16.578125 32.582031 15.132812 35.46875 12.25 C 38.300781 9.425781 39.71875 6.019531 39.71875 2.03125 L 39.71875 -6.8125 C 39.40625 -6.382812 39.066406 -5.957031 38.703125 -5.53125 C 34.828125 -1.226562 30.097656 0.921875 24.515625 0.921875 C 18.859375 0.921875 14.125 -1.226562 10.3125 -5.53125 C 6.570312 -9.707031 4.703125 -14.617188 4.703125 -20.265625 C 4.703125 -25.921875 6.570312 -30.835938 10.3125 -35.015625 C 14.125 -39.316406 18.859375 -41.46875 24.515625 -41.46875 C 29.921875 -41.46875 34.648438 -39.316406 38.703125 -35.015625 C 39.066406 -34.585938 39.40625 -34.15625 39.71875 -33.71875 L 39.71875 -40.546875 L 46.15625 -40.546875 L 46.15625 2.03125 C 46.15625 7.800781 44.097656 12.742188 39.984375 16.859375 C 35.867188 20.972656 30.925781 23.03125 25.15625 23.03125 C 19.382812 23.03125 14.4375 20.972656 10.3125 16.859375 C 7.0625 13.609375 5.097656 9.832031 4.421875 5.53125 Z M 10.96875 5.53125 "/></g></g></g><g fill="#000000" fill-opacity="1"><g transform="translate(141.650274, 87.930816)"><g><path d="M 40.078125 -20.453125 C 40.078125 -24.503906 38.632812 -27.972656 35.75 -30.859375 C 32.863281 -33.753906 29.394531 -35.203125 25.34375 -35.203125 C 21.28125 -35.203125 17.804688 -33.753906 14.921875 -30.859375 C 12.035156 -27.972656 10.59375 -24.503906 10.59375 -20.453125 C 10.59375 -16.460938 12.035156 -13.023438 14.921875 -10.140625 C 17.804688 -7.253906 21.28125 -5.8125 25.34375 -5.8125 C 29.394531 -5.8125 32.863281 -7.253906 35.75 -10.140625 C 38.632812 -13.023438 40.078125 -16.460938 40.078125 -20.453125 Z M 46.53125 -20.453125 C 46.53125 -14.554688 44.472656 -9.582031 40.359375 -5.53125 C 36.117188 -1.414062 31.113281 0.640625 25.34375 0.640625 C 19.5625 0.640625 14.582031 -1.414062 10.40625 -5.53125 C 6.226562 -9.582031 4.140625 -14.554688 4.140625 -20.453125 C 4.140625 -26.285156 6.226562 -31.289062 10.40625 -35.46875 C 14.519531 -39.582031 19.5 -41.640625 25.34375 -41.640625 C 31.175781 -41.640625 36.179688 -39.582031 40.359375 -35.46875 C 44.472656 -31.289062 46.53125 -26.285156 46.53125 -20.453125 Z M 46.53125 -20.453125 "/></g></g></g><g fill="#000000" fill-opacity="1"><g transform="translate(192.32731, 87.930816)"><g/></g></g><g fill="#000000" fill-opacity="1"><g transform="translate(217.205122, 87.930816)"><g><path d="M 13.359375 -31.046875 L 27.921875 -31.046875 C 31.546875 -31.046875 34.523438 -32.273438 36.859375 -34.734375 C 39.253906 -37.191406 40.453125 -40.265625 40.453125 -43.953125 C 40.453125 -47.640625 39.316406 -50.648438 37.046875 -52.984375 C 34.765625 -55.316406 31.722656 -56.484375 27.921875 -56.484375 L 13.359375 -56.484375 Z M 46.90625 -43.765625 C 46.90625 -38.296875 44.96875 -33.75 41.09375 -30.125 C 37.28125 -26.5625 32.582031 -24.78125 27 -24.78125 L 13.359375 -24.78125 L 13.359375 0 L 6.90625 0 L 6.90625 -62.65625 L 27 -62.65625 C 32.53125 -62.65625 37.226562 -60.90625 41.09375 -57.40625 C 44.96875 -53.84375 46.90625 -49.296875 46.90625 -43.765625 Z M 46.90625 -43.765625 "/></g></g></g><g fill="#000000" fill-opacity="1"><g transform="translate(265.94721, 87.930816)"><g><path d="M 27.734375 -32.15625 C 26.253906 -33.507812 24.65625 -34.1875 22.9375 -34.1875 C 21.28125 -34.1875 19.867188 -33.722656 18.703125 -32.796875 C 17.472656 -31.816406 16.457031 -30.648438 15.65625 -29.296875 C 14.125 -26.597656 13.359375 -23.585938 13.359375 -20.265625 L 13.359375 0 L 6.90625 0 L 6.90625 -40.546875 L 13.359375 -40.546875 L 13.359375 -32.15625 L 13.640625 -33.8125 C 15.785156 -38.851562 19.132812 -41.375 23.6875 -41.375 C 25.09375 -41.375 26.441406 -41.097656 27.734375 -40.546875 Z M 27.734375 -32.15625 "/></g></g></g><g fill="#000000" fill-opacity="1"><g transform="translate(294.602767, 87.930816)"><g><path d="M 40.078125 -20.453125 C 40.078125 -24.503906 38.632812 -27.972656 35.75 -30.859375 C 32.863281 -33.753906 29.394531 -35.203125 25.34375 -35.203125 C 21.28125 -35.203125 17.804688 -33.753906 14.921875 -30.859375 C 12.035156 -27.972656 10.59375 -24.503906 10.59375 -20.453125 C 10.59375 -16.460938 12.035156 -13.023438 14.921875 -10.140625 C 17.804688 -7.253906 21.28125 -5.8125 25.34375 -5.8125 C 29.394531 -5.8125 32.863281 -7.253906 35.75 -10.140625 C 38.632812 -13.023438 40.078125 -16.460938 40.078125 -20.453125 Z M 46.53125 -20.453125 C 46.53125 -14.554688 44.472656 -9.582031 40.359375 -5.53125 C 36.117188 -1.414062 31.113281 0.640625 25.34375 0.640625 C 19.5625 0.640625 14.582031 -1.414062 10.40625 -5.53125 C 6.226562 -9.582031 4.140625 -14.554688 4.140625 -20.453125 C 4.140625 -26.285156 6.226562 -31.289062 10.40625 -35.46875 C 14.519531 -39.582031 19.5 -41.640625 25.34375 -41.640625 C 31.175781 -41.640625 36.179688 -39.582031 40.359375 -35.46875 C 44.472656 -31.289062 46.53125 -26.285156 46.53125 -20.453125 Z M 46.53125 -20.453125 "/></g></g></g><g fill="#000000" fill-opacity="1"><g transform="translate(345.279804, 87.930816)"><g><path d="M 39.71875 -20.265625 C 39.71875 -24.203125 38.363281 -27.644531 35.65625 -30.59375 C 32.894531 -33.539062 29.488281 -35.015625 25.4375 -35.015625 C 21.5 -35.015625 18.117188 -33.539062 15.296875 -30.59375 C 12.535156 -27.707031 11.15625 -24.265625 11.15625 -20.265625 C 11.15625 -16.273438 12.535156 -12.835938 15.296875 -9.953125 C 18.117188 -7.003906 21.5 -5.53125 25.4375 -5.53125 C 29.488281 -5.53125 32.894531 -7.003906 35.65625 -9.953125 C 38.363281 -12.898438 39.71875 -16.335938 39.71875 -20.265625 Z M 10.96875 5.53125 C 11.582031 8.050781 12.898438 10.289062 14.921875 12.25 C 17.753906 15.132812 21.164062 16.578125 25.15625 16.578125 C 29.144531 16.578125 32.582031 15.132812 35.46875 12.25 C 38.300781 9.425781 39.71875 6.019531 39.71875 2.03125 L 39.71875 -6.8125 C 39.40625 -6.382812 39.066406 -5.957031 38.703125 -5.53125 C 34.828125 -1.226562 30.097656 0.921875 24.515625 0.921875 C 18.859375 0.921875 14.125 -1.226562 10.3125 -5.53125 C 6.570312 -9.707031 4.703125 -14.617188 4.703125 -20.265625 C 4.703125 -25.921875 6.570312 -30.835938 10.3125 -35.015625 C 14.125 -39.316406 18.859375 -41.46875 24.515625 -41.46875 C 29.921875 -41.46875 34.648438 -39.316406 38.703125 -35.015625 C 39.066406 -34.585938 39.40625 -34.15625 39.71875 -33.71875 L 39.71875 -40.546875 L 46.15625 -40.546875 L 46.15625 2.03125 C 46.15625 7.800781 44.097656 12.742188 39.984375 16.859375 C 35.867188 20.972656 30.925781 23.03125 25.15625 23.03125 C 19.382812 23.03125 14.4375 20.972656 10.3125 16.859375 C 7.0625 13.609375 5.097656 9.832031 4.421875 5.53125 Z M 10.96875 5.53125 "/></g></g></g><g fill="#000000" fill-opacity="1"><g transform="translate(398.352481, 87.930816)"><g><path d="M 27.734375 -32.15625 C 26.253906 -33.507812 24.65625 -34.1875 22.9375 -34.1875 C 21.28125 -34.1875 19.867188 -33.722656 18.703125 -32.796875 C 17.472656 -31.816406 16.457031 -30.648438 15.65625 -29.296875 C 14.125 -26.597656 13.359375 -23.585938 13.359375 -20.265625 L 13.359375 0 L 6.90625 0 L 6.90625 -40.546875 L 13.359375 -40.546875 L 13.359375 -32.15625 L 13.640625 -33.8125 C 15.785156 -38.851562 19.132812 -41.375 23.6875 -41.375 C 25.09375 -41.375 26.441406 -41.097656 27.734375 -40.546875 Z M 27.734375 -32.15625 "/></g></g></g><g fill="#000000" fill-opacity="1"><g transform="translate(427.008038, 87.930816)"><g><path d="M 39.15625 -20.265625 C 39.15625 -24.203125 37.804688 -27.644531 35.109375 -30.59375 C 32.335938 -33.539062 28.925781 -35.015625 24.875 -35.015625 C 20.820312 -35.015625 17.445312 -33.539062 14.75 -30.59375 C 11.976562 -27.644531 10.59375 -24.203125 10.59375 -20.265625 C 10.59375 -16.335938 11.976562 -12.898438 14.75 -9.953125 C 17.445312 -7.003906 20.820312 -5.53125 24.875 -5.53125 C 28.925781 -5.53125 32.335938 -7.003906 35.109375 -9.953125 C 37.804688 -12.898438 39.15625 -16.335938 39.15625 -20.265625 Z M 45.609375 0 L 39.15625 0 L 39.15625 -6.90625 C 38.789062 -6.414062 38.421875 -5.957031 38.046875 -5.53125 C 34.179688 -1.226562 29.453125 0.921875 23.859375 0.921875 C 18.273438 0.921875 13.578125 -1.226562 9.765625 -5.53125 C 6.015625 -9.707031 4.140625 -14.617188 4.140625 -20.265625 C 4.140625 -25.921875 6.015625 -30.835938 9.765625 -35.015625 C 13.578125 -39.316406 18.273438 -41.46875 23.859375 -41.46875 C 29.453125 -41.46875 34.179688 -39.316406 38.046875 -35.015625 C 38.421875 -34.585938 38.789062 -34.125 39.15625 -33.625 L 39.15625 -40.546875 L 45.609375 -40.546875 Z M 45.609375 0 "/></g></g></g><g fill="#000000" fill-opacity="1"><g transform="translate(479.527872, 87.930816)"><g><path d="M 58.328125 -0.1875 L 58.328125 -25.515625 C 58.328125 -29.691406 57.003906 -32.644531 54.359375 -34.375 C 53.441406 -34.925781 52.03125 -35.203125 50.125 -35.203125 C 48.21875 -35.203125 46.4375 -34.648438 44.78125 -33.546875 C 43.125 -32.429688 41.800781 -31.015625 40.8125 -29.296875 C 40.445312 -28.617188 40.113281 -27.882812 39.8125 -27.09375 C 39.8125 -26.601562 39.8125 -26.078125 39.8125 -25.515625 L 39.8125 -0.1875 L 33.359375 -0.1875 L 33.359375 -25.515625 C 33.359375 -29.691406 32.035156 -32.644531 29.390625 -34.375 C 28.472656 -34.925781 27.0625 -35.203125 25.15625 -35.203125 C 23.25 -35.203125 21.46875 -34.648438 19.8125 -33.546875 C 18.15625 -32.429688 16.832031 -31.015625 15.84375 -29.296875 C 14.550781 -27.023438 13.722656 -24.234375 13.359375 -20.921875 L 13.359375 -0.1875 L 6.90625 -0.1875 L 6.90625 -40.71875 L 13.359375 -40.71875 L 13.359375 -34.28125 C 14.585938 -36.363281 16.125 -38.050781 17.96875 -39.34375 C 20.050781 -40.875 22.507812 -41.640625 25.34375 -41.640625 C 28.164062 -41.640625 30.4375 -41.210938 32.15625 -40.359375 C 33.875 -39.429688 35.316406 -38.234375 36.484375 -36.765625 C 37.097656 -35.898438 37.648438 -34.945312 38.140625 -33.90625 C 39.367188 -36.113281 40.96875 -37.925781 42.9375 -39.34375 C 45.03125 -40.875 47.488281 -41.640625 50.3125 -41.640625 C 53.132812 -41.640625 55.40625 -41.210938 57.125 -40.359375 C 58.84375 -39.429688 60.285156 -38.234375 61.453125 -36.765625 C 63.671875 -33.878906 64.78125 -30.128906 64.78125 -25.515625 L 64.78125 -0.1875 Z M 58.328125 -0.1875 "/></g></g></g><g fill="#000000" fill-opacity="1"><g transform="translate(549.847455, 87.930816)"><g/></g></g><g fill="#000000" fill-opacity="1"><g transform="translate(0.307407, 216.29774)"><g><path d="M 13.359375 0 L 6.90625 0 L 6.90625 -69.109375 L 13.359375 -69.109375 L 13.359375 -33.625 C 13.722656 -34.125 14.125 -34.585938 14.5625 -35.015625 C 18.363281 -39.316406 23.0625 -41.46875 28.65625 -41.46875 C 34.25 -41.46875 38.976562 -39.316406 42.84375 -35.015625 C 46.53125 -30.835938 48.375 -25.921875 48.375 -20.265625 C 48.375 -14.617188 46.53125 -9.707031 42.84375 -5.53125 C 38.976562 -1.226562 34.25 0.921875 28.65625 0.921875 C 23.0625 0.921875 18.363281 -1.226562 14.5625 -5.53125 C 14.125 -5.957031 13.722656 -6.414062 13.359375 -6.90625 Z M 41.921875 -20.265625 C 41.921875 -24.203125 40.570312 -27.644531 37.875 -30.59375 C 35.101562 -33.539062 31.691406 -35.015625 27.640625 -35.015625 C 23.585938 -35.015625 20.207031 -33.539062 17.5 -30.59375 C 14.738281 -27.644531 13.359375 -24.203125 13.359375 -20.265625 C 13.359375 -16.335938 14.738281 -12.898438 17.5 -9.953125 C 20.207031 -7.003906 23.585938 -5.53125 27.640625 -5.53125 C 31.691406 -5.53125 35.101562 -7.003906 37.875 -9.953125 C 40.570312 -12.898438 41.921875 -16.335938 41.921875 -20.265625 Z M 41.921875 -20.265625 "/></g></g></g><g fill="#000000" fill-opacity="1"><g transform="translate(52.827241, 216.29774)"><g><path d="M 46.53125 -21.1875 L 46.53125 -17.78125 L 10.875 -17.78125 C 11.488281 -14.28125 13.175781 -11.425781 15.9375 -9.21875 C 18.757812 -6.945312 21.894531 -5.8125 25.34375 -5.8125 C 27.675781 -5.8125 29.914062 -6.363281 32.0625 -7.46875 C 34.15625 -8.507812 35.90625 -9.984375 37.3125 -11.890625 L 44.6875 -11.890625 C 42.96875 -8.015625 40.390625 -4.972656 36.953125 -2.765625 C 33.453125 -0.492188 29.921875 0.640625 26.359375 0.640625 C 22.734375 0.640625 19.660156 0.0859375 17.140625 -1.015625 C 14.554688 -2.117188 12.3125 -3.625 10.40625 -5.53125 C 6.226562 -9.582031 4.140625 -14.554688 4.140625 -20.453125 C 4.140625 -26.285156 6.226562 -31.289062 10.40625 -35.46875 C 14.519531 -39.582031 19.5 -41.640625 25.34375 -41.640625 C 30.988281 -41.640625 35.929688 -39.644531 40.171875 -35.65625 C 44.410156 -31.601562 46.53125 -26.78125 46.53125 -21.1875 Z M 39.71875 -23.3125 C 38.976562 -26.75 37.253906 -29.601562 34.546875 -31.875 C 31.847656 -34.09375 28.78125 -35.203125 25.34375 -35.203125 C 20.0625 -35.203125 15.914062 -32.835938 12.90625 -28.109375 C 11.976562 -26.628906 11.332031 -25.03125 10.96875 -23.3125 Z M 39.71875 -23.3125 "/></g></g></g><g fill="#000000" fill-opacity="1"><g transform="translate(103.043586, 216.29774)"><g><path d="M 13.359375 0 L 6.90625 0 L 6.90625 -69.109375 L 13.359375 -69.109375 Z M 13.359375 0 "/></g></g></g><g fill="#000000" fill-opacity="1"><g transform="translate(123.314389, 216.29774)"><g><path d="M 34.921875 -6.90625 C 31.910156 -1.75 27.394531 0.828125 21.375 0.828125 C 16.832031 0.828125 13.269531 -0.675781 10.6875 -3.6875 C 8.164062 -6.695312 6.90625 -10.535156 6.90625 -15.203125 L 6.90625 -40.546875 L 13.359375 -40.546875 L 13.359375 -15.203125 C 13.359375 -12.554688 13.972656 -10.316406 15.203125 -8.484375 C 16.367188 -6.578125 18.332031 -5.625 21.09375 -5.625 C 26.132812 -5.625 29.695312 -7.21875 31.78125 -10.40625 C 33.875 -13.539062 34.921875 -17.9375 34.921875 -23.59375 L 34.921875 -40.546875 L 41.375 -40.546875 L 41.375 0 L 34.921875 0 Z M 34.921875 -6.90625 "/></g></g></g><g fill="#000000" fill-opacity="1"><g transform="translate(170.213681, 216.29774)"><g><path d="M 58.328125 -0.1875 L 58.328125 -25.515625 C 58.328125 -29.691406 57.003906 -32.644531 54.359375 -34.375 C 53.441406 -34.925781 52.03125 -35.203125 50.125 -35.203125 C 48.21875 -35.203125 46.4375 -34.648438 44.78125 -33.546875 C 43.125 -32.429688 41.800781 -31.015625 40.8125 -29.296875 C 40.445312 -28.617188 40.113281 -27.882812 39.8125 -27.09375 C 39.8125 -26.601562 39.8125 -26.078125 39.8125 -25.515625 L 39.8125 -0.1875 L 33.359375 -0.1875 L 33.359375 -25.515625 C 33.359375 -29.691406 32.035156 -32.644531 29.390625 -34.375 C 28.472656 -34.925781 27.0625 -35.203125 25.15625 -35.203125 C 23.25 -35.203125 21.46875 -34.648438 19.8125 -33.546875 C 18.15625 -32.429688 16.832031 -31.015625 15.84375 -29.296875 C 14.550781 -27.023438 13.722656 -24.234375 13.359375 -20.921875 L 13.359375 -0.1875 L 6.90625 -0.1875 L 6.90625 -40.71875 L 13.359375 -40.71875 L 13.359375 -34.28125 C 14.585938 -36.363281 16.125 -38.050781 17.96875 -39.34375 C 20.050781 -40.875 22.507812 -41.640625 25.34375 -41.640625 C 28.164062 -41.640625 30.4375 -41.210938 32.15625 -40.359375 C 33.875 -39.429688 35.316406 -38.234375 36.484375 -36.765625 C 37.097656 -35.898438 37.648438 -34.945312 38.140625 -33.90625 C 39.367188 -36.113281 40.96875 -37.925781 42.9375 -39.34375 C 45.03125 -40.875 47.488281 -41.640625 50.3125 -41.640625 C 53.132812 -41.640625 55.40625 -41.210938 57.125 -40.359375 C 58.84375 -39.429688 60.285156 -38.234375 61.453125 -36.765625 C 63.671875 -33.878906 64.78125 -30.128906 64.78125 -25.515625 L 64.78125 -0.1875 Z M 58.328125 -0.1875 "/></g></g></g><g fill="#000000" fill-opacity="1"><g transform="translate(240.516559, 216.29774)"><g/></g></g><g fill="#000000" fill-opacity="1"><g transform="translate(265.39437, 216.29774)"><g><path d="M 39.15625 -20.265625 C 39.15625 -24.203125 37.804688 -27.644531 35.109375 -30.59375 C 32.335938 -33.539062 28.925781 -35.015625 24.875 -35.015625 C 20.820312 -35.015625 17.445312 -33.539062 14.75 -30.59375 C 11.976562 -27.644531 10.59375 -24.203125 10.59375 -20.265625 C 10.59375 -16.335938 11.976562 -12.898438 14.75 -9.953125 C 17.445312 -7.003906 20.820312 -5.53125 24.875 -5.53125 C 28.925781 -5.53125 32.335938 -7.003906 35.109375 -9.953125 C 37.804688 -12.898438 39.15625 -16.335938 39.15625 -20.265625 Z M 45.609375 0 L 39.15625 0 L 39.15625 -6.90625 C 38.789062 -6.414062 38.421875 -5.957031 38.046875 -5.53125 C 34.179688 -1.226562 29.453125 0.921875 23.859375 0.921875 C 18.273438 0.921875 13.578125 -1.226562 9.765625 -5.53125 C 6.015625 -9.707031 4.140625 -14.617188 4.140625 -20.265625 C 4.140625 -25.921875 6.015625 -30.835938 9.765625 -35.015625 C 13.578125 -39.316406 18.273438 -41.46875 23.859375 -41.46875 C 29.453125 -41.46875 34.179688 -39.316406 38.046875 -35.015625 C 38.421875 -34.585938 38.789062 -34.125 39.15625 -33.625 L 39.15625 -69.109375 L 45.609375 -69.109375 Z M 45.609375 0 "/></g></g></g><g fill="#000000" fill-opacity="1"><g transform="translate(317.914204, 216.29774)"><g><path d="M 13.453125 -54.546875 C 14.253906 -53.742188 14.65625 -52.789062 14.65625 -51.6875 C 14.65625 -50.519531 14.253906 -49.539062 13.453125 -48.75 C 12.648438 -47.945312 11.695312 -47.546875 10.59375 -47.546875 C 9.425781 -47.546875 8.441406 -47.945312 7.640625 -48.75 C 6.847656 -49.539062 6.453125 -50.519531 6.453125 -51.6875 C 6.453125 -52.789062 6.847656 -53.742188 7.640625 -54.546875 C 8.441406 -55.347656 9.425781 -55.75 10.59375 -55.75 C 11.695312 -55.75 12.648438 -55.347656 13.453125 -54.546875 Z M 13.828125 0 L 7.375 0 L 7.375 -40.546875 L 13.828125 -40.546875 Z M 13.828125 0 "/></g></g></g><g fill="#000000" fill-opacity="1"><g transform="translate(339.014271, 216.29774)"><g/></g></g><g fill="#000000" fill-opacity="1"><g transform="translate(363.892082, 216.29774)"><g><path d="M 34.921875 -6.90625 C 31.910156 -1.75 27.394531 0.828125 21.375 0.828125 C 16.832031 0.828125 13.269531 -0.675781 10.6875 -3.6875 C 8.164062 -6.695312 6.90625 -10.535156 6.90625 -15.203125 L 6.90625 -40.546875 L 13.359375 -40.546875 L 13.359375 -15.203125 C 13.359375 -12.554688 13.972656 -10.316406 15.203125 -8.484375 C 16.367188 -6.578125 18.332031 -5.625 21.09375 -5.625 C 26.132812 -5.625 29.695312 -7.21875 31.78125 -10.40625 C 33.875 -13.539062 34.921875 -17.9375 34.921875 -23.59375 L 34.921875 -40.546875 L 41.375 -40.546875 L 41.375 0 L 34.921875 0 Z M 34.921875 -6.90625 "/></g></g></g><g fill="#000000" fill-opacity="1"><g transform="translate(410.791375, 216.29774)"><g><path d="M 13.359375 23.03125 L 6.90625 23.03125 L 6.90625 -40.546875 L 13.359375 -40.546875 L 13.359375 -33.625 C 13.722656 -34.125 14.125 -34.585938 14.5625 -35.015625 C 18.363281 -39.316406 23.0625 -41.46875 28.65625 -41.46875 C 34.25 -41.46875 38.976562 -39.316406 42.84375 -35.015625 C 46.53125 -30.835938 48.375 -25.921875 48.375 -20.265625 C 48.375 -14.617188 46.53125 -9.707031 42.84375 -5.53125 C 38.976562 -1.226562 34.25 0.921875 28.65625 0.921875 C 23.0625 0.921875 18.363281 -1.226562 14.5625 -5.53125 C 14.125 -5.957031 13.722656 -6.414062 13.359375 -6.90625 Z M 41.921875 -20.265625 C 41.921875 -24.203125 40.570312 -27.644531 37.875 -30.59375 C 35.101562 -33.539062 31.691406 -35.015625 27.640625 -35.015625 C 23.585938 -35.015625 20.207031 -33.539062 17.5 -30.59375 C 14.738281 -27.644531 13.359375 -24.203125 13.359375 -20.265625 C 13.359375 -16.335938 14.738281 -12.898438 17.5 -9.953125 C 20.207031 -7.003906 23.585938 -5.53125 27.640625 -5.53125 C 31.691406 -5.53125 35.101562 -7.003906 37.875 -9.953125 C 40.570312 -12.898438 41.921875 -16.335938 41.921875 -20.265625 Z M 41.921875 -20.265625 "/></g></g></g><g fill="#000000" fill-opacity="1"><g transform="translate(463.311209, 216.29774)"><g><path d="M 13.359375 0 L 6.90625 0 L 6.90625 -69.109375 L 13.359375 -69.109375 Z M 13.359375 0 "/></g></g></g><g fill="#000000" fill-opacity="1"><g transform="translate(483.582012, 216.29774)"><g><path d="M 40.078125 -20.453125 C 40.078125 -24.503906 38.632812 -27.972656 35.75 -30.859375 C 32.863281 -33.753906 29.394531 -35.203125 25.34375 -35.203125 C 21.28125 -35.203125 17.804688 -33.753906 14.921875 -30.859375 C 12.035156 -27.972656 10.59375 -24.503906 10.59375 -20.453125 C 10.59375 -16.460938 12.035156 -13.023438 14.921875 -10.140625 C 17.804688 -7.253906 21.28125 -5.8125 25.34375 -5.8125 C 29.394531 -5.8125 32.863281 -7.253906 35.75 -10.140625 C 38.632812 -13.023438 40.078125 -16.460938 40.078125 -20.453125 Z M 46.53125 -20.453125 C 46.53125 -14.554688 44.472656 -9.582031 40.359375 -5.53125 C 36.117188 -1.414062 31.113281 0.640625 25.34375 0.640625 C 19.5625 0.640625 14.582031 -1.414062 10.40625 -5.53125 C 6.226562 -9.582031 4.140625 -14.554688 4.140625 -20.453125 C 4.140625 -26.285156 6.226562 -31.289062 10.40625 -35.46875 C 14.519531 -39.582031 19.5 -41.640625 25.34375 -41.640625 C 31.175781 -41.640625 36.179688 -39.582031 40.359375 -35.46875 C 44.472656 -31.289062 46.53125 -26.285156 46.53125 -20.453125 Z M 46.53125 -20.453125 "/></g></g></g><g fill="#000000" fill-opacity="1"><g transform="translate(534.259018, 216.29774)"><g><path d="M 39.15625 -20.265625 C 39.15625 -24.203125 37.804688 -27.644531 35.109375 -30.59375 C 32.335938 -33.539062 28.925781 -35.015625 24.875 -35.015625 C 20.820312 -35.015625 17.445312 -33.539062 14.75 -30.59375 C 11.976562 -27.644531 10.59375 -24.203125 10.59375 -20.265625 C 10.59375 -16.335938 11.976562 -12.898438 14.75 -9.953125 C 17.445312 -7.003906 20.820312 -5.53125 24.875 -5.53125 C 28.925781 -5.53125 32.335938 -7.003906 35.109375 -9.953125 C 37.804688 -12.898438 39.15625 -16.335938 39.15625 -20.265625 Z M 45.609375 0 L 39.15625 0 L 39.15625 -6.90625 C 38.789062 -6.414062 38.421875 -5.957031 38.046875 -5.53125 C 34.179688 -1.226562 29.453125 0.921875 23.859375 0.921875 C 18.273438 0.921875 13.578125 -1.226562 9.765625 -5.53125 C 6.015625 -9.707031 4.140625 -14.617188 4.140625 -20.265625 C 4.140625 -25.921875 6.015625 -30.835938 9.765625 -35.015625 C 13.578125 -39.316406 18.273438 -41.46875 23.859375 -41.46875 C 29.453125 -41.46875 34.179688 -39.316406 38.046875 -35.015625 C 38.421875 -34.585938 38.789062 -34.125 39.15625 -33.625 L 39.15625 -40.546875 L 45.609375 -40.546875 Z M 45.609375 0 "/></g></g></g><g fill="#000000" fill-opacity="1"><g transform="translate(586.778852, 216.29774)"><g><path d="M 39.15625 -20.265625 C 39.15625 -24.203125 37.804688 -27.644531 35.109375 -30.59375 C 32.335938 -33.539062 28.925781 -35.015625 24.875 -35.015625 C 20.820312 -35.015625 17.445312 -33.539062 14.75 -30.59375 C 11.976562 -27.644531 10.59375 -24.203125 10.59375 -20.265625 C 10.59375 -16.335938 11.976562 -12.898438 14.75 -9.953125 C 17.445312 -7.003906 20.820312 -5.53125 24.875 -5.53125 C 28.925781 -5.53125 32.335938 -7.003906 35.109375 -9.953125 C 37.804688 -12.898438 39.15625 -16.335938 39.15625 -20.265625 Z M 45.609375 0 L 39.15625 0 L 39.15625 -6.90625 C 38.789062 -6.414062 38.421875 -5.957031 38.046875 -5.53125 C 34.179688 -1.226562 29.453125 0.921875 23.859375 0.921875 C 18.273438 0.921875 13.578125 -1.226562 9.765625 -5.53125 C 6.015625 -9.707031 4.140625 -14.617188 4.140625 -20.265625 C 4.140625 -25.921875 6.015625 -30.835938 9.765625 -35.015625 C 13.578125 -39.316406 18.273438 -41.46875 23.859375 -41.46875 C 29.453125 -41.46875 34.179688 -39.316406 38.046875 -35.015625 C 38.421875 -34.585938 38.789062 -34.125 39.15625 -33.625 L 39.15625 -69.109375 L 45.609375 -69.109375 Z M 45.609375 0 "/></g></g></g></g></g></svg>