<svg xmlns="http://www.w3.org/2000/svg" xmlns:xlink="http://www.w3.org/1999/xlink" width="3000" zoomAndPan="magnify" viewBox="0 0 2250 2250.000011" height="3000" preserveAspectRatio="xMidYMid meet" version="1.0"><defs><clipPath id="a28c94ad28"><path d="M 345.464844 643.152344 L 1702 643.152344 L 1702 1582 L 345.464844 1582 Z M 345.464844 643.152344 " clip-rule="nonzero"/></clipPath><clipPath id="28d48cc162"><path d="M 1240 1094 L 1904.769531 1094 L 1904.769531 1790.894531 L 1240 1790.894531 Z M 1240 1094 " clip-rule="nonzero"/></clipPath></defs><g clip-path="url(#a28c94ad28)"><path fill="#000000" d="M 1309.183594 1581.105469 L 396.921875 1581.105469 C 368.605469 1581.105469 345.464844 1557.96875 345.464844 1529.660156 L 345.464844 695.253906 C 345.464844 666.945312 368.605469 643.808594 396.921875 643.808594 L 1650.214844 643.808594 C 1678.53125 643.808594 1701.675781 666.945312 1701.675781 695.253906 L 1701.675781 1112.304688 C 1701.675781 1122.351562 1693.453125 1130.570312 1683.40625 1130.570312 C 1673.355469 1130.570312 1665.136719 1122.351562 1665.136719 1112.304688 L 1665.136719 695.253906 C 1665.136719 687.035156 1658.4375 680.339844 1650.214844 680.339844 L 396.921875 680.339844 C 388.703125 680.339844 382.003906 687.035156 382.003906 695.253906 L 382.003906 1529.660156 C 382.003906 1537.878906 388.703125 1544.574219 396.921875 1544.574219 L 1309.183594 1544.574219 C 1319.230469 1544.574219 1327.453125 1552.792969 1327.453125 1562.839844 C 1327.453125 1572.886719 1319.230469 1581.105469 1309.183594 1581.105469 Z M 1309.183594 1581.105469 " fill-opacity="1" fill-rule="nonzero"/></g><path fill="#000000" d="M 716.03125 1224.9375 C 711.769531 1224.9375 707.199219 1223.417969 703.546875 1220.066406 L 617.679688 1141.527344 C 610.371094 1134.832031 609.761719 1123.261719 616.460938 1115.652344 C 623.160156 1108.347656 634.730469 1107.738281 642.34375 1114.433594 L 728.210938 1192.972656 C 735.519531 1199.671875 736.128906 1211.238281 729.429688 1218.851562 C 726.078125 1222.808594 721.207031 1224.9375 716.03125 1224.9375 Z M 716.03125 1224.9375 " fill-opacity="1" fill-rule="nonzero"/><path fill="#000000" d="M 716.03125 1224.9375 C 711.769531 1224.9375 707.199219 1223.417969 703.546875 1220.066406 L 617.679688 1141.527344 C 610.371094 1134.832031 609.761719 1123.261719 616.460938 1115.652344 C 623.160156 1108.347656 634.730469 1107.738281 642.34375 1114.433594 L 728.210938 1192.972656 C 735.519531 1199.671875 736.128906 1211.238281 729.429688 1218.851562 C 726.078125 1222.808594 721.207031 1224.9375 716.03125 1224.9375 Z M 716.03125 1224.9375 " fill-opacity="1" fill-rule="nonzero"/><path fill="#000000" d="M 457.515625 1377.753906 C 447.46875 1377.753906 439.246094 1369.839844 439.246094 1359.792969 L 438.941406 1330.875 C 438.636719 1297.996094 448.078125 1221.285156 472.132812 1192.0625 C 476.089844 1187.191406 479.746094 1183.234375 483.703125 1179.582031 C 484.007812 1179.277344 484.617188 1178.667969 484.921875 1178.363281 L 485.835938 1177.449219 C 485.835938 1177.449219 486.140625 1177.144531 486.140625 1177.144531 C 505.019531 1160.097656 528.464844 1148.835938 554.042969 1144.269531 C 581.445312 1139.703125 602.457031 1129.960938 616.765625 1115.957031 C 617.070312 1115.652344 617.070312 1115.652344 617.375 1115.347656 C 623.160156 1109.261719 634.730469 1092.515625 646.300781 1072.425781 C 651.480469 1063.597656 662.441406 1060.859375 671.269531 1066.03125 C 680.101562 1071.207031 682.839844 1082.167969 677.664062 1090.996094 C 671.269531 1101.953125 655.4375 1128.132812 643.867188 1140.308594 C 643.5625 1140.613281 643.257812 1140.917969 643.257812 1141.222656 C 623.464844 1161.011719 595.757812 1174.101562 560.132812 1180.1875 C 541.558594 1183.539062 524.503906 1191.757812 510.804688 1203.933594 C 510.5 1204.238281 509.890625 1204.542969 509.585938 1205.152344 L 508.671875 1206.0625 C 505.625 1208.804688 502.886719 1211.847656 500.144531 1215.5 C 485.53125 1233.460938 474.875 1297.695312 475.175781 1330.570312 L 475.480469 1359.488281 C 475.785156 1369.230469 467.871094 1377.449219 457.515625 1377.753906 Z M 457.515625 1377.753906 " fill-opacity="1" fill-rule="nonzero"/><path fill="#000000" d="M 973.023438 1377.753906 C 962.976562 1377.753906 954.753906 1369.839844 954.753906 1359.792969 L 954.144531 1320.21875 C 953.839844 1300.433594 952.011719 1258.121094 950.1875 1250.507812 C 947.445312 1240.464844 944.097656 1231.636719 940.136719 1223.71875 C 935.570312 1214.589844 929.785156 1207.28125 923.695312 1201.5 C 923.390625 1201.195312 922.78125 1200.585938 922.476562 1200.28125 C 922.171875 1199.976562 922.171875 1199.976562 921.867188 1199.671875 C 921.867188 1199.671875 921.5625 1199.367188 921.5625 1199.367188 C 907.558594 1187.191406 890.503906 1179.277344 871.628906 1176.535156 C 853.054688 1173.796875 836.304688 1168.925781 821.691406 1162.226562 C 808.902344 1156.445312 797.636719 1148.835938 788.195312 1139.703125 C 787.890625 1139.398438 787.585938 1139.398438 787.585938 1139.09375 C 769.316406 1121.132812 761.402344 1101.039062 758.355469 1086.734375 C 754.398438 1077.601562 758.660156 1066.640625 768.101562 1062.988281 C 777.539062 1059.03125 788.195312 1063.292969 792.15625 1072.730469 L 792.761719 1074.253906 C 793.371094 1075.46875 793.675781 1076.382812 793.675781 1077.601562 C 795.503906 1086.734375 800.375 1100.433594 812.554688 1112.304688 C 812.859375 1112.609375 812.859375 1112.609375 813.164062 1112.914062 C 819.558594 1119.304688 827.78125 1124.785156 837.21875 1129.046875 C 848.484375 1134.222656 861.882812 1138.179688 877.109375 1140.3125 C 902.683594 1143.964844 926.4375 1154.921875 945.617188 1171.359375 C 946.226562 1171.664062 946.53125 1172.273438 947.140625 1172.578125 C 947.445312 1172.882812 947.75 1172.882812 947.75 1173.1875 C 948.054688 1173.492188 948.054688 1173.492188 948.359375 1173.796875 C 958.101562 1182.625 966.324219 1193.582031 973.023438 1206.367188 C 978.199219 1216.414062 982.765625 1227.984375 985.8125 1240.464844 C 990.074219 1255.988281 990.988281 1318.699219 990.988281 1319.308594 L 991.597656 1358.882812 C 991.597656 1369.230469 983.375 1377.449219 973.023438 1377.753906 C 973.328125 1377.753906 973.023438 1377.753906 973.023438 1377.753906 Z M 973.023438 1377.753906 " fill-opacity="1" fill-rule="nonzero"/><path fill="#000000" d="M 716.03125 1224.9375 C 711.160156 1224.9375 706.289062 1223.113281 702.9375 1219.15625 C 695.933594 1211.847656 696.238281 1200.28125 703.546875 1193.277344 L 787.585938 1112.914062 C 794.894531 1105.910156 806.464844 1106.214844 813.46875 1113.523438 C 820.472656 1120.828125 820.167969 1132.394531 812.859375 1139.398438 L 728.820312 1219.761719 C 725.167969 1223.113281 720.597656 1224.9375 716.03125 1224.9375 Z M 716.03125 1224.9375 " fill-opacity="1" fill-rule="nonzero"/><path fill="#000000" d="M 885.632812 1377.753906 C 875.585938 1377.753906 867.363281 1369.535156 867.363281 1359.488281 L 866.753906 1256.292969 C 866.753906 1246.246094 874.671875 1238.027344 885.023438 1238.027344 C 895.074219 1238.027344 903.292969 1246.246094 903.292969 1256.292969 L 903.902344 1359.488281 C 904.207031 1369.230469 895.988281 1377.753906 885.632812 1377.753906 C 885.9375 1377.753906 885.9375 1377.753906 885.632812 1377.753906 Z M 885.632812 1377.753906 " fill-opacity="1" fill-rule="nonzero"/><path fill="#000000" d="M 544.601562 1377.753906 C 534.554688 1377.753906 526.332031 1369.535156 526.332031 1359.488281 L 525.722656 1260.25 C 525.722656 1250.203125 533.640625 1241.984375 543.992188 1241.984375 C 554.042969 1241.984375 562.261719 1250.203125 562.261719 1260.25 L 562.871094 1359.488281 C 563.175781 1369.535156 554.953125 1377.753906 544.601562 1377.753906 C 544.90625 1377.753906 544.90625 1377.753906 544.601562 1377.753906 Z M 544.601562 1377.753906 " fill-opacity="1" fill-rule="nonzero"/><path fill="#000000" d="M 554.953125 901.34375 C 545.820312 901.34375 537.902344 894.34375 536.683594 884.90625 C 533.945312 857.507812 543.6875 835.589844 551.300781 823.109375 C 540.949219 801.800781 547.953125 780.492188 554.042969 771.054688 C 557.390625 765.878906 562.261719 761.921875 568.351562 761.921875 C 574.136719 761.921875 579.007812 763.75 582.359375 768.3125 C 584.796875 769.53125 591.796875 767.097656 601.847656 754.921875 C 602.457031 754.007812 603.367188 753.398438 604.28125 752.484375 C 640.210938 722.042969 726.382812 679.121094 794.285156 734.21875 C 794.589844 734.523438 794.894531 734.828125 795.199219 735.132812 C 797.636719 737.265625 818.644531 757.964844 822.300781 782.316406 C 823.820312 792.972656 821.996094 802.714844 817.121094 811.542969 C 808.902344 826.457031 792.15625 835.589844 773.582031 835.589844 C 773.582031 835.589844 773.277344 835.589844 773.277344 835.589844 C 763.226562 835.589844 753.179688 833.765625 743.4375 830.71875 C 733.691406 827.675781 728.515625 817.324219 731.558594 807.886719 C 734.605469 798.148438 744.957031 792.972656 754.398438 796.015625 C 760.792969 798.148438 767.492188 799.058594 773.582031 799.363281 C 778.453125 799.363281 783.324219 797.234375 785.152344 793.886719 C 785.761719 792.667969 786.367188 791.144531 786.066406 787.796875 C 784.542969 778.054688 774.492188 766.183594 770.535156 762.226562 C 712.683594 715.953125 639.300781 771.054688 628.945312 779.578125 C 614.941406 796.015625 600.019531 804.84375 585.097656 805.148438 C 584.492188 805.148438 583.882812 805.148438 583.578125 805.148438 C 584.1875 807.28125 585.707031 809.714844 587.535156 811.847656 C 593.625 818.847656 593.320312 829.5 586.925781 836.199219 C 586.316406 836.808594 570.179688 854.769531 573.222656 880.949219 C 574.136719 890.992188 567.132812 899.820312 557.085938 901.039062 C 556.171875 901.34375 555.5625 901.34375 554.953125 901.34375 Z M 582.96875 768.617188 Z M 582.96875 768.617188 " fill-opacity="1" fill-rule="nonzero"/><path fill="#000000" d="M 868.886719 899.519531 C 868.886719 899.519531 868.582031 899.519531 868.582031 899.519531 C 858.535156 899.214844 850.617188 890.992188 850.617188 880.949219 C 850.921875 872.121094 850.007812 865.117188 850.007812 865.117188 C 849.703125 860.855469 850.617188 856.898438 852.75 853.246094 C 853.359375 852.332031 854.878906 849.289062 855.792969 841.375 C 857.011719 831.023438 853.054688 820.976562 845.441406 813.671875 C 829.910156 799.058594 807.988281 802.714844 807.683594 802.714844 C 797.636719 804.539062 788.195312 798.148438 786.367188 788.101562 C 784.542969 778.054688 791.242188 768.617188 800.984375 766.792969 C 802.507812 766.488281 841.179688 759.484375 870.410156 786.882812 C 886.546875 802.105469 894.464844 823.109375 892.027344 845.027344 C 891.113281 853.550781 889.289062 860.550781 886.546875 866.640625 C 886.851562 870.292969 886.851562 875.46875 886.851562 881.253906 C 886.851562 891.601562 878.628906 899.519531 868.886719 899.519531 Z M 868.886719 899.519531 " fill-opacity="1" fill-rule="nonzero"/><path fill="#000000" d="M 715.421875 1115.957031 C 705.375 1115.957031 694.414062 1114.128906 682.839844 1110.476562 C 639.605469 1097.082031 606.109375 1064.816406 593.015625 1024.328125 C 587.230469 1006.367188 582.664062 987.796875 579.921875 975.316406 C 579.3125 972.882812 579.007812 970.445312 578.402344 968.621094 C 576.878906 961.921875 575.660156 956.441406 573.832031 951.269531 C 572.007812 945.484375 570.789062 938.789062 569.875 932.089844 C 568.351562 917.476562 569.875 900.429688 573.832031 881.863281 L 574.136719 880.949219 C 582.054688 846.246094 612.808594 822.195312 649.347656 822.804688 C 664.875 822.804688 678.578125 816.410156 680.710938 815.195312 C 706.59375 799.667969 744.652344 795.101562 746.480469 794.796875 C 756.527344 793.582031 765.664062 800.886719 766.882812 810.628906 C 768.097656 820.675781 760.792969 829.804688 751.046875 831.023438 C 741.914062 832.242188 715.117188 837.113281 699.589844 846.550781 C 699.285156 846.855469 698.980469 846.855469 698.675781 846.855469 C 696.238281 848.070312 675.230469 859.03125 649.042969 859.03125 C 649.042969 859.03125 648.738281 859.03125 648.738281 859.03125 C 629.859375 859.03125 614.027344 871.207031 610.066406 888.863281 L 609.761719 889.777344 C 606.414062 904.691406 605.195312 917.476562 606.414062 928.4375 C 606.71875 932.699219 607.632812 936.65625 608.851562 940.003906 C 610.675781 946.09375 612.503906 952.789062 614.332031 960.707031 C 614.636719 962.835938 615.246094 964.96875 615.851562 967.097656 C 618.59375 978.664062 622.855469 996.320312 628.03125 1013.066406 C 637.167969 1042.289062 661.832031 1065.425781 693.804688 1075.164062 C 703.242188 1077.90625 711.464844 1079.425781 718.46875 1078.820312 C 725.167969 1078.515625 731.863281 1077.296875 738.5625 1075.46875 C 768.707031 1067.554688 792.761719 1046.550781 803.117188 1019.457031 C 809.511719 1002.105469 814.6875 985.058594 817.730469 968.925781 C 820.472656 955.226562 821.996094 942.136719 822.300781 929.65625 C 822.300781 927.21875 822.300781 925.089844 822.300781 922.957031 C 821.386719 865.117188 793.980469 840.15625 793.675781 840.15625 C 790.328125 837.417969 788.195312 833.460938 787.28125 828.894531 L 783.628906 804.84375 C 782.105469 794.796875 788.804688 785.667969 798.851562 783.839844 C 808.902344 782.316406 818.035156 789.015625 819.863281 799.058594 L 822.605469 817.019531 C 833.566406 829.199219 857.925781 862.683594 858.839844 922.042969 C 858.839844 924.785156 858.839844 927.21875 858.839844 930.265625 C 858.535156 944.875 856.707031 960.097656 853.660156 975.925781 C 850.007812 993.886719 844.527344 1012.761719 837.523438 1031.9375 C 823.210938 1070.296875 790.023438 1099.519531 748.308594 1110.476562 C 739.476562 1112.914062 730.34375 1114.433594 721.207031 1115.042969 C 719.078125 1115.652344 717.25 1115.957031 715.421875 1115.957031 Z M 715.421875 1115.957031 " fill-opacity="1" fill-rule="nonzero"/><path fill="#000000" d="M 840.570312 941.222656 L 840.265625 922.957031 L 840.265625 904.691406 C 850.3125 904.691406 858.535156 912.609375 858.839844 922.652344 C 858.839844 932.699219 850.921875 940.917969 840.875 941.222656 Z M 840.570312 941.222656 " fill-opacity="1" fill-rule="nonzero"/><path fill="#000000" d="M 569.875 998.148438 C 532.421875 998.148438 501.972656 967.707031 501.972656 930.261719 C 501.972656 900.429688 521.15625 874.554688 549.472656 865.421875 C 565.917969 860.246094 584.796875 861.769531 600.628906 869.683594 C 609.761719 874.25 613.113281 885.210938 608.546875 894.34375 C 603.976562 903.476562 593.015625 906.824219 583.882812 902.257812 C 579.617188 900.125 574.746094 898.910156 569.875 898.910156 C 566.523438 898.910156 563.480469 899.519531 560.433594 900.429688 C 547.34375 904.691406 538.511719 916.566406 538.511719 930.261719 C 538.511719 947.617188 552.519531 961.617188 569.875 961.617188 C 576.269531 961.617188 582.359375 959.792969 587.535156 956.140625 C 595.757812 950.355469 607.328125 952.484375 612.808594 961.007812 C 618.59375 969.230469 616.460938 980.796875 607.9375 986.277344 C 596.976562 994.191406 583.578125 998.148438 569.875 998.148438 Z M 569.875 998.148438 " fill-opacity="1" fill-rule="nonzero"/><path fill="#000000" d="M 860.96875 998.148438 C 848.484375 998.148438 836.609375 994.800781 825.953125 988.40625 C 817.425781 983.230469 814.6875 971.96875 819.863281 963.445312 C 825.039062 954.921875 836.304688 952.179688 844.832031 957.355469 C 849.703125 960.402344 855.183594 961.921875 860.96875 961.921875 C 878.324219 961.921875 892.332031 947.917969 892.332031 930.566406 C 892.332031 915.042969 881.371094 901.953125 865.839844 899.519531 C 858.535156 898.300781 851.53125 899.820312 845.441406 903.171875 C 836.609375 908.34375 825.648438 905.300781 820.472656 896.472656 C 815.296875 887.644531 818.339844 876.6875 827.171875 871.511719 C 840.265625 863.902344 855.792969 860.855469 871.628906 863.292969 C 904.816406 868.46875 928.871094 896.777344 928.871094 930.265625 C 928.871094 967.707031 898.421875 998.148438 860.96875 998.148438 Z M 860.96875 998.148438 " fill-opacity="1" fill-rule="nonzero"/><path fill="#000000" d="M 973.023438 1377.753906 L 457.515625 1377.753906 C 447.46875 1377.753906 439.246094 1369.535156 439.246094 1359.488281 C 439.246094 1349.445312 447.46875 1341.226562 457.515625 1341.226562 L 973.023438 1341.226562 C 983.070312 1341.226562 991.292969 1349.445312 991.292969 1359.488281 C 991.292969 1369.535156 983.070312 1377.753906 973.023438 1377.753906 Z M 973.023438 1377.753906 " fill-opacity="1" fill-rule="nonzero"/><g clip-path="url(#28d48cc162)"><path fill="#000000" d="M 1572.265625 1790.238281 C 1570.742188 1790.238281 1568.914062 1789.933594 1567.394531 1789.628906 C 1516.847656 1775.929688 1467.519531 1752.1875 1424.28125 1721.136719 C 1397.789062 1702.261719 1373.429688 1680.34375 1352.117188 1655.992188 C 1351.8125 1655.6875 1351.8125 1655.6875 1351.507812 1655.382812 C 1345.113281 1648.078125 1339.023438 1640.769531 1333.238281 1633.160156 C 1317.101562 1612.460938 1302.789062 1590.238281 1290.914062 1566.796875 C 1290.914062 1566.492188 1290.609375 1566.1875 1290.609375 1566.1875 C 1274.167969 1534.226562 1261.378906 1500.128906 1252.851562 1464.511719 C 1243.414062 1425.242188 1239.148438 1384.148438 1240.671875 1345.183594 C 1240.976562 1337.875 1245.542969 1331.179688 1252.546875 1328.742188 C 1256.203125 1327.222656 1259.855469 1326.003906 1263.507812 1324.480469 C 1288.171875 1313.828125 1323.796875 1293.734375 1353.945312 1256.597656 C 1398.09375 1202.105469 1405.402344 1142.441406 1406.011719 1112 C 1406.316406 1101.953125 1414.234375 1094.039062 1424.28125 1094.039062 L 1720.855469 1094.039062 C 1730.90625 1094.039062 1738.820312 1101.953125 1739.125 1112 C 1739.734375 1142.746094 1747.042969 1202.410156 1791.195312 1256.597656 C 1821.339844 1293.734375 1856.964844 1314.132812 1881.628906 1324.480469 C 1885.285156 1326.003906 1888.9375 1327.527344 1892.589844 1328.742188 C 1899.59375 1331.179688 1904.160156 1337.875 1904.464844 1345.183594 C 1905.074219 1361.925781 1904.464844 1378.363281 1903.25 1395.714844 C 1903.25 1395.714844 1903.25 1396.019531 1903.25 1396.019531 C 1901.421875 1418.851562 1897.765625 1441.988281 1892.285156 1464.511719 C 1883.761719 1500.128906 1871.277344 1534.226562 1854.53125 1566.1875 C 1842.351562 1589.628906 1828.039062 1612.15625 1811.597656 1633.160156 C 1805.507812 1640.769531 1799.417969 1648.378906 1793.328125 1655.382812 C 1771.707031 1679.734375 1747.347656 1701.957031 1720.550781 1720.832031 C 1677.316406 1751.882812 1627.988281 1775.320312 1577.441406 1789.324219 C 1575.613281 1789.933594 1574.089844 1790.238281 1572.265625 1790.238281 Z M 1378.605469 1631.027344 C 1378.910156 1631.332031 1378.910156 1631.332031 1379.214844 1631.636719 C 1399.007812 1653.859375 1421.539062 1674.257812 1445.898438 1691.609375 C 1484.265625 1719.003906 1527.808594 1740.3125 1572.570312 1753.101562 C 1617.328125 1740.3125 1660.871094 1719.003906 1699.238281 1691.609375 C 1723.597656 1673.953125 1746.128906 1653.859375 1765.921875 1631.636719 C 1771.707031 1625.246094 1777.1875 1618.546875 1782.667969 1611.242188 C 1797.589844 1592.0625 1810.683594 1571.363281 1821.949219 1549.75 C 1837.171875 1520.527344 1848.746094 1489.171875 1856.355469 1456.597656 C 1861.226562 1435.898438 1864.578125 1414.894531 1866.40625 1393.890625 C 1866.40625 1393.890625 1866.40625 1393.585938 1866.40625 1393.585938 C 1867.316406 1381.710938 1867.925781 1370.144531 1867.925781 1358.882812 C 1867.621094 1358.578125 1867.316406 1358.578125 1866.710938 1358.273438 C 1838.390625 1346.09375 1797.285156 1322.65625 1762.574219 1279.734375 C 1719.335938 1226.15625 1706.546875 1168.316406 1703.195312 1130.570312 L 1441.332031 1130.570312 C 1437.984375 1168.316406 1425.5 1226.15625 1381.957031 1279.734375 C 1347.246094 1322.65625 1306.136719 1346.09375 1277.515625 1358.273438 C 1277.210938 1358.273438 1276.90625 1358.578125 1276.601562 1358.578125 C 1276.601562 1390.539062 1280.5625 1424.027344 1288.171875 1456.292969 C 1295.785156 1488.5625 1307.355469 1519.917969 1322.277344 1548.835938 C 1322.277344 1549.140625 1322.582031 1549.445312 1322.582031 1549.445312 C 1333.542969 1571.058594 1346.941406 1591.453125 1361.859375 1610.632812 C 1367.339844 1617.9375 1372.820312 1624.636719 1378.605469 1631.027344 Z M 1884.675781 1395.105469 Z M 1884.675781 1395.105469 " fill-opacity="1" fill-rule="nonzero"/></g><path fill="#000000" d="M 1572.265625 1663.90625 C 1506.191406 1663.90625 1452.292969 1610.023438 1452.292969 1543.964844 L 1452.292969 1442.292969 C 1452.292969 1432.246094 1460.515625 1424.027344 1470.5625 1424.027344 L 1674.269531 1424.027344 C 1684.316406 1424.027344 1692.539062 1432.246094 1692.539062 1442.292969 L 1692.539062 1543.964844 C 1692.539062 1610.328125 1638.644531 1663.90625 1572.265625 1663.90625 Z M 1488.832031 1460.554688 L 1488.832031 1543.964844 C 1488.832031 1589.933594 1526.285156 1627.375 1572.265625 1627.375 C 1618.242188 1627.375 1655.695312 1589.933594 1655.695312 1543.964844 L 1655.695312 1460.554688 Z M 1488.832031 1460.554688 " fill-opacity="1" fill-rule="nonzero"/><path fill="#000000" d="M 1646.257812 1460.554688 C 1636.207031 1460.554688 1627.988281 1452.335938 1627.988281 1442.292969 L 1627.988281 1383.84375 C 1627.988281 1353.097656 1603.019531 1328.136719 1572.265625 1328.136719 C 1541.511719 1328.136719 1516.542969 1353.097656 1516.542969 1383.84375 L 1516.542969 1442.292969 C 1516.542969 1452.335938 1508.320312 1460.554688 1498.273438 1460.554688 C 1488.226562 1460.554688 1480.003906 1452.335938 1480.003906 1442.292969 L 1480.003906 1383.84375 C 1480.003906 1333.003906 1521.414062 1291.605469 1572.265625 1291.605469 C 1623.113281 1291.605469 1664.527344 1333.003906 1664.527344 1383.84375 L 1664.527344 1442.292969 C 1664.527344 1452.335938 1656.304688 1460.554688 1646.257812 1460.554688 Z M 1646.257812 1460.554688 " fill-opacity="1" fill-rule="nonzero"/><path fill="#000000" d="M 1572.265625 1581.105469 C 1562.214844 1581.105469 1553.996094 1572.886719 1553.996094 1562.839844 L 1553.996094 1543.964844 C 1553.996094 1533.921875 1562.214844 1525.699219 1572.265625 1525.699219 C 1582.3125 1525.699219 1590.535156 1533.921875 1590.535156 1543.964844 L 1590.535156 1562.839844 C 1590.535156 1573.191406 1582.3125 1581.105469 1572.265625 1581.105469 Z M 1572.265625 1581.105469 " fill-opacity="1" fill-rule="nonzero"/><path fill="#000000" d="M 1613.980469 743.65625 L 973.023438 743.65625 C 962.976562 743.65625 954.753906 735.4375 954.753906 725.390625 C 954.753906 715.347656 962.976562 707.125 973.023438 707.125 L 1613.980469 707.125 C 1624.027344 707.125 1632.25 715.347656 1632.25 725.390625 C 1632.25 735.4375 1624.027344 743.65625 1613.980469 743.65625 Z M 1613.980469 743.65625 " fill-opacity="1" fill-rule="nonzero"/><path fill="#000000" d="M 1613.980469 851.117188 L 973.023438 851.117188 C 962.976562 851.117188 954.753906 842.894531 954.753906 832.851562 C 954.753906 822.804688 962.976562 814.585938 973.023438 814.585938 L 1613.980469 814.585938 C 1624.027344 814.585938 1632.25 822.804688 1632.25 832.851562 C 1632.25 842.894531 1624.027344 851.117188 1613.980469 851.117188 Z M 1613.980469 851.117188 " fill-opacity="1" fill-rule="nonzero"/><path fill="#000000" d="M 1613.980469 958.269531 L 973.023438 958.269531 C 962.976562 958.269531 954.753906 950.050781 954.753906 940.003906 C 954.753906 929.960938 962.976562 921.738281 973.023438 921.738281 L 1613.980469 921.738281 C 1624.027344 921.738281 1632.25 929.960938 1632.25 940.003906 C 1632.25 950.050781 1624.027344 958.269531 1613.980469 958.269531 Z M 1613.980469 958.269531 " fill-opacity="1" fill-rule="nonzero"/></svg>