<svg xmlns="http://www.w3.org/2000/svg" xmlns:xlink="http://www.w3.org/1999/xlink" width="3000" zoomAndPan="magnify" viewBox="0 0 2250 2250.000011" height="3000" preserveAspectRatio="xMidYMid meet" version="1.0"><defs><clipPath id="dbf5a4ff52"><path d="M 156 536 L 1808 536 L 1808 2112.613281 L 156 2112.613281 Z M 156 536 " clip-rule="nonzero"/></clipPath></defs><path fill="#27211f" d="M 1031.625 238.554688 C 1020.136719 228.15625 1005.65625 220.371094 988.175781 215.203125 C 969.363281 209.671875 951.78125 208.671875 935.386719 212.230469 C 919.011719 215.785156 905.40625 222.339844 894.578125 231.953125 C 883.769531 241.527344 876.667969 252.035156 873.289062 263.507812 C 871.65625 269.058594 872.464844 274.871094 875.6875 281.039062 C 878.921875 287.152344 883.925781 291.222656 890.683594 293.203125 C 902.136719 296.589844 911.917969 292.058594 920.027344 279.667969 C 928.222656 267.894531 936.421875 259.621094 944.667969 254.789062 C 952.917969 249.917969 963.660156 249.457031 976.929688 253.363281 C 988.265625 256.714844 996.53125 262.761719 1001.753906 271.503906 C 1006.976562 280.25 1008.15625 289.453125 1005.3125 299.105469 C 1003.859375 304.058594 1001.335938 308.289062 997.730469 311.804688 C 994.132812 315.339844 990.109375 318.308594 985.660156 320.734375 C 981.21875 323.152344 974.132812 326.59375 964.433594 331.082031 C 953.351562 336.222656 944.398438 340.800781 937.558594 344.871094 C 930.71875 348.96875 924.632812 354.246094 919.320312 360.730469 C 913.996094 367.242188 909.839844 375.546875 906.859375 385.65625 C 904.46875 393.75 904.816406 400.445312 907.902344 405.820312 C 910.964844 411.1875 915.632812 414.796875 921.910156 416.65625 C 933.960938 420.210938 942.988281 416.050781 948.964844 404.167969 C 952.035156 398.652344 954.25 394.820312 955.605469 392.660156 C 956.96875 390.515625 958.601562 388.445312 960.492188 386.445312 C 962.378906 384.445312 964.988281 382.402344 968.300781 380.304688 C 971.609375 378.171875 975.859375 375.863281 981.0625 373.328125 C 999.800781 364.445312 1012.859375 358.03125 1020.246094 354.125 C 1027.621094 350.21875 1034.53125 345.007812 1040.96875 338.503906 C 1047.402344 332.035156 1052.125 323.640625 1055.148438 313.40625 C 1058.988281 300.386719 1058.910156 287.242188 1054.886719 274.019531 C 1050.84375 260.757812 1043.097656 248.949219 1031.625 238.554688 " fill-opacity="1" fill-rule="nonzero"/><path fill="#27211f" d="M 919.039062 433.679688 C 911.328125 431.398438 904.050781 432.101562 897.214844 435.722656 C 890.382812 439.332031 885.84375 444.933594 883.609375 452.539062 C 881.082031 461.09375 881.855469 468.5625 885.941406 474.957031 C 890.019531 481.324219 895.734375 485.601562 903.089844 487.765625 C 910.203125 489.863281 917.1875 489.300781 924.035156 486.066406 C 930.890625 482.859375 935.550781 477.019531 938.046875 468.578125 C 940.28125 461.003906 939.574219 453.835938 935.921875 447.113281 C 932.261719 440.394531 926.632812 435.90625 919.039062 433.679688 " fill-opacity="1" fill-rule="nonzero"/><path fill="#27211f" d="M 1602.25 166.324219 C 1590.757812 155.933594 1576.273438 148.136719 1558.789062 143.003906 C 1539.980469 137.445312 1522.394531 136.464844 1506.011719 140.027344 C 1489.617188 143.558594 1476.011719 150.144531 1465.203125 159.746094 C 1454.386719 169.328125 1447.273438 179.839844 1443.90625 191.304688 C 1442.28125 196.835938 1443.070312 202.675781 1446.304688 208.808594 C 1449.527344 214.949219 1454.53125 219 1461.296875 220.996094 C 1472.761719 224.367188 1482.523438 219.851562 1490.644531 207.4375 C 1498.828125 195.699219 1507.027344 187.398438 1515.285156 182.554688 C 1523.511719 177.722656 1534.285156 177.234375 1547.535156 181.164062 C 1558.878906 184.492188 1567.136719 190.558594 1572.367188 199.296875 C 1577.570312 208.042969 1578.78125 217.226562 1575.929688 226.902344 C 1574.457031 231.835938 1571.949219 236.066406 1568.34375 239.601562 C 1564.738281 243.132812 1560.714844 246.085938 1556.273438 248.53125 C 1551.832031 250.945312 1544.746094 254.386719 1535.046875 258.875 C 1523.957031 263.988281 1515.003906 268.59375 1508.171875 272.664062 C 1501.332031 276.761719 1495.238281 282.039062 1489.945312 288.523438 C 1484.613281 295.011719 1480.453125 303.3125 1477.484375 313.449219 C 1475.085938 321.523438 1475.429688 328.246094 1478.527344 333.617188 C 1481.570312 338.984375 1486.246094 342.589844 1492.523438 344.425781 C 1504.566406 347.984375 1513.613281 343.824219 1519.589844 331.960938 C 1522.660156 326.449219 1524.867188 322.617188 1526.210938 320.453125 C 1527.582031 318.292969 1529.21875 316.21875 1531.097656 314.222656 C 1533.003906 312.242188 1535.609375 310.171875 1538.90625 308.082031 C 1542.214844 305.964844 1546.464844 303.667969 1551.679688 301.132812 C 1570.414062 292.222656 1583.484375 285.828125 1590.851562 281.894531 C 1598.242188 277.988281 1605.15625 272.78125 1611.59375 266.296875 C 1618.007812 259.800781 1622.75 251.4375 1625.753906 241.179688 C 1629.613281 228.183594 1629.515625 215.019531 1625.5 201.785156 C 1621.476562 188.558594 1613.710938 176.742188 1602.25 166.324219 " fill-opacity="1" fill-rule="nonzero"/><path fill="#27211f" d="M 1489.664062 361.476562 C 1481.941406 359.195312 1474.667969 359.867188 1467.828125 363.5 C 1461 367.125 1456.457031 372.730469 1454.230469 380.304688 C 1451.699219 388.863281 1452.460938 396.355469 1456.558594 402.722656 C 1460.644531 409.101562 1466.339844 413.398438 1473.714844 415.558594 C 1480.808594 417.65625 1487.800781 417.09375 1494.65625 413.859375 C 1501.496094 410.636719 1506.175781 404.820312 1508.664062 396.375 C 1510.886719 388.769531 1510.1875 381.613281 1506.546875 374.910156 C 1502.867188 368.195312 1497.246094 363.710938 1489.664062 361.476562 " fill-opacity="1" fill-rule="nonzero"/><path fill="#27211f" d="M 1322.117188 208.507812 C 1310.628906 198.117188 1296.140625 190.320312 1278.660156 185.164062 C 1259.847656 179.628906 1242.273438 178.632812 1225.878906 182.183594 C 1209.515625 185.742188 1195.882812 192.300781 1185.074219 201.902344 C 1174.265625 211.503906 1167.171875 221.996094 1163.773438 233.460938 C 1162.148438 239.019531 1162.957031 244.851562 1166.171875 250.992188 C 1169.40625 257.113281 1174.429688 261.183594 1181.167969 263.179688 C 1192.628906 266.550781 1202.394531 262.019531 1210.511719 249.621094 C 1218.695312 237.855469 1226.898438 229.570312 1235.152344 224.738281 C 1243.410156 219.878906 1254.152344 219.417969 1267.40625 223.324219 C 1278.75 226.664062 1287.03125 232.714844 1292.238281 241.460938 C 1297.46875 250.226562 1298.660156 259.410156 1295.796875 269.058594 C 1294.351562 274.019531 1291.820312 278.25 1288.214844 281.757812 C 1284.609375 285.289062 1280.585938 288.269531 1276.152344 290.6875 C 1271.710938 293.101562 1264.617188 296.546875 1254.917969 301.03125 C 1243.828125 306.175781 1234.882812 310.753906 1228.042969 314.847656 C 1221.203125 318.917969 1215.136719 324.195312 1209.8125 330.679688 C 1204.492188 337.195312 1200.324219 345.496094 1197.351562 355.617188 C 1194.953125 363.710938 1195.300781 370.421875 1198.398438 375.773438 C 1201.46875 381.148438 1206.117188 384.746094 1212.394531 386.609375 C 1224.464844 390.167969 1233.484375 386.007812 1239.457031 374.144531 C 1242.527344 368.613281 1244.734375 364.800781 1246.105469 362.609375 C 1247.453125 360.476562 1249.085938 358.40625 1250.964844 356.40625 C 1252.875 354.40625 1255.480469 352.355469 1258.777344 350.265625 C 1262.101562 348.121094 1266.332031 345.824219 1271.546875 343.289062 C 1290.285156 334.40625 1303.355469 328.011719 1310.71875 324.078125 C 1318.113281 320.171875 1325.023438 314.96875 1331.464844 308.480469 C 1337.902344 301.988281 1342.625 293.621094 1345.640625 283.363281 C 1349.484375 270.339844 1349.394531 257.203125 1345.371094 243.96875 C 1341.347656 230.714844 1333.582031 218.898438 1322.117188 208.507812 " fill-opacity="1" fill-rule="nonzero"/><path fill="#27211f" d="M 1209.53125 403.632812 C 1201.8125 401.378906 1194.535156 402.050781 1187.699219 405.675781 C 1180.867188 409.28125 1176.328125 414.886719 1174.101562 422.488281 C 1171.566406 431.046875 1172.359375 438.511719 1176.425781 444.90625 C 1180.511719 451.285156 1186.207031 455.5625 1193.582031 457.722656 C 1200.695312 459.839844 1207.671875 459.277344 1214.535156 456.042969 C 1221.367188 452.808594 1226.042969 446.980469 1228.53125 438.539062 C 1230.757812 430.957031 1230.066406 423.796875 1226.417969 417.09375 C 1222.738281 410.355469 1217.117188 405.882812 1209.53125 403.632812 " fill-opacity="1" fill-rule="nonzero"/><path fill="#27211f" d="M 1811.292969 352.773438 C 1799.8125 342.382812 1785.351562 334.585938 1767.859375 329.429688 C 1749.050781 323.894531 1731.445312 322.898438 1715.0625 326.449219 C 1698.6875 330.007812 1685.089844 336.59375 1674.253906 346.167969 C 1663.4375 355.78125 1656.351562 366.289062 1652.972656 377.726562 C 1651.332031 383.285156 1652.140625 389.125 1655.371094 395.257812 C 1658.605469 401.398438 1663.601562 405.449219 1670.367188 407.445312 C 1681.8125 410.816406 1691.601562 406.300781 1699.714844 393.886719 C 1707.894531 382.148438 1716.105469 373.847656 1724.335938 369.003906 C 1732.589844 364.171875 1743.335938 363.683594 1756.605469 367.589844 C 1767.929688 370.941406 1776.207031 377.007812 1781.4375 385.726562 C 1786.648438 394.492188 1787.832031 403.675781 1784.996094 413.332031 C 1783.535156 418.285156 1781 422.515625 1777.394531 426.023438 C 1773.816406 429.554688 1769.792969 432.535156 1765.351562 434.980469 C 1760.910156 437.378906 1753.816406 440.839844 1744.125 445.308594 C 1733.035156 450.4375 1724.082031 455.027344 1717.222656 459.113281 C 1710.410156 463.183594 1704.316406 468.460938 1698.996094 474.957031 C 1693.691406 481.460938 1689.53125 489.761719 1686.535156 499.882812 C 1684.15625 507.976562 1684.480469 514.695312 1687.578125 520.039062 C 1690.648438 525.414062 1695.316406 529.019531 1701.59375 530.875 C 1713.636719 534.433594 1722.664062 530.273438 1728.640625 518.410156 C 1731.710938 512.878906 1733.917969 509.066406 1735.289062 506.902344 C 1736.632812 504.742188 1738.285156 502.671875 1740.167969 500.671875 C 1742.054688 498.691406 1744.660156 496.628906 1747.984375 494.53125 C 1751.28125 492.414062 1755.542969 490.117188 1760.746094 487.554688 C 1779.484375 478.671875 1792.535156 472.277344 1799.929688 468.351562 C 1807.292969 464.4375 1814.199219 459.230469 1820.644531 452.746094 C 1827.085938 446.261719 1831.800781 437.886719 1834.824219 427.628906 C 1838.664062 414.605469 1838.59375 401.46875 1834.570312 388.234375 C 1830.527344 374.980469 1822.78125 363.171875 1811.292969 352.773438 " fill-opacity="1" fill-rule="nonzero"/><path fill="#27211f" d="M 1698.714844 547.925781 C 1691.019531 545.644531 1683.738281 546.316406 1676.90625 549.949219 C 1670.066406 553.546875 1665.535156 559.152344 1663.28125 566.753906 C 1660.765625 575.320312 1661.539062 582.804688 1665.625 589.171875 C 1669.695312 595.550781 1675.417969 599.828125 1682.765625 602.007812 C 1689.875 604.105469 1696.878906 603.542969 1703.710938 600.320312 C 1710.574219 597.085938 1715.226562 591.242188 1717.734375 582.804688 C 1719.96875 575.21875 1719.238281 568.0625 1715.597656 561.367188 C 1711.945312 554.617188 1706.316406 550.160156 1698.714844 547.925781 " fill-opacity="1" fill-rule="nonzero"/><path fill="#27211f" d="M 2020.234375 558.714844 C 2016.183594 545.460938 2008.445312 533.644531 1996.980469 523.226562 C 1985.492188 512.851562 1971.007812 505.066406 1953.523438 499.898438 C 1934.710938 494.347656 1917.136719 493.367188 1900.746094 496.929688 C 1884.351562 500.480469 1870.746094 507.039062 1859.9375 516.648438 C 1849.128906 526.222656 1842.007812 536.742188 1838.636719 548.207031 C 1837.011719 553.738281 1837.804688 559.597656 1841.035156 565.738281 C 1844.269531 571.851562 1849.265625 575.921875 1856.03125 577.898438 C 1867.492188 581.289062 1877.257812 576.753906 1885.375 564.367188 C 1893.558594 552.59375 1901.761719 544.316406 1910.015625 539.484375 C 1918.246094 534.625 1929.019531 534.152344 1942.269531 538.058594 C 1953.613281 541.410156 1961.871094 547.460938 1967.101562 556.199219 C 1972.304688 564.945312 1973.496094 574.15625 1970.660156 583.804688 C 1969.191406 588.753906 1966.683594 592.988281 1963.078125 596.503906 C 1959.472656 600.035156 1955.449219 603.015625 1951.015625 605.433594 C 1946.574219 607.847656 1939.480469 611.292969 1929.78125 615.777344 C 1918.691406 620.921875 1909.746094 625.5 1902.90625 629.566406 C 1896.066406 633.664062 1889.980469 638.941406 1884.675781 645.425781 C 1879.355469 651.941406 1875.1875 660.242188 1872.214844 670.351562 C 1869.820312 678.445312 1870.164062 685.140625 1873.261719 690.519531 C 1876.304688 695.886719 1880.980469 699.492188 1887.257812 701.355469 C 1899.300781 704.886719 1908.347656 700.746094 1914.324219 688.863281 C 1917.390625 683.351562 1919.597656 679.519531 1920.945312 677.355469 C 1922.316406 675.210938 1923.949219 673.140625 1925.828125 671.144531 C 1927.738281 669.144531 1930.34375 667.101562 1933.640625 664.984375 C 1936.945312 662.867188 1941.199219 660.570312 1946.410156 658.027344 C 1965.148438 649.152344 1978.21875 642.757812 1985.582031 638.824219 C 1992.976562 634.917969 1999.886719 629.703125 2006.328125 623.21875 C 2012.738281 616.734375 2017.492188 608.339844 2020.488281 598.101562 C 2024.347656 585.085938 2024.257812 571.941406 2020.234375 558.714844 " fill-opacity="1" fill-rule="nonzero"/><path fill="#27211f" d="M 1884.394531 718.378906 C 1876.675781 716.117188 1869.402344 716.796875 1862.5625 720.421875 C 1855.730469 724.027344 1851.191406 729.632812 1848.964844 737.234375 C 1846.429688 745.792969 1847.195312 753.257812 1851.289062 759.652344 C 1855.378906 766.019531 1861.070312 770.300781 1868.445312 772.460938 C 1875.539062 774.558594 1882.535156 773.996094 1889.398438 770.761719 C 1896.230469 767.554688 1900.90625 761.722656 1903.394531 753.277344 C 1905.621094 745.699219 1904.929688 738.535156 1901.28125 731.8125 C 1897.601562 725.097656 1891.980469 720.628906 1884.394531 718.378906 " fill-opacity="1" fill-rule="nonzero"/><g clip-path="url(#dbf5a4ff52)"><path fill="#27211f" d="M 780.347656 1581.5625 L 778.804688 1584.441406 L 780.339844 1587.332031 C 780.957031 1588.492188 795.6875 1615.5625 821.484375 1615.5625 C 834.664062 1615.5625 847.921875 1608.394531 860.929688 1594.308594 C 866.324219 1602.117188 870.046875 1608.796875 872.472656 1613.671875 C 858.8125 1631.304688 842.519531 1654.484375 837.933594 1670.019531 C 836.796875 1673.015625 827.96875 1697.207031 832.808594 1716.246094 C 832.335938 1718.015625 831.773438 1720.207031 831.183594 1722.695312 L 808.113281 1679.855469 C 784.453125 1643.976562 753.9375 1557.746094 753.9375 1557.746094 C 777.234375 1534.699219 800.53125 1540.585938 812.863281 1546.5625 C 801.621094 1555.628906 787.171875 1568.863281 780.347656 1581.5625 Z M 296.761719 1937.558594 C 248.6875 1913.140625 225.546875 1879.050781 225.546875 1879.050781 C 225.546875 1879.050781 261.414062 1910.324219 303.382812 1930.925781 C 345.351562 1951.527344 429.285156 2049.222656 429.285156 2049.222656 C 429.285156 2049.222656 344.84375 1961.972656 296.761719 1937.558594 Z M 1802.808594 2064.5 C 1681.484375 2015.640625 1528.890625 2061.429688 1528.890625 2061.429688 C 1669.277344 2004.964844 1802.808594 2047.714844 1802.808594 2047.714844 L 1799.246094 1963 C 1661.394531 1982.828125 1531.933594 2050.757812 1531.933594 2050.757812 C 1660.886719 1969.085938 1799.246094 1942.136719 1799.246094 1942.136719 L 1795.179688 1853.605469 C 1698.523438 1888.1875 1543.886719 2018.457031 1543.886719 2018.457031 C 1616.128906 1930.925781 1789.09375 1834.257812 1789.09375 1834.257812 C 1789.09375 1772.199219 1767.722656 1726.410156 1767.722656 1726.410156 C 1666.234375 1772.964844 1589.925781 1871.402344 1589.925781 1871.402344 C 1694.453125 1731.761719 1760.609375 1711.648438 1760.609375 1711.648438 C 1748.375 1684.6875 1706.660156 1651.625 1706.660156 1651.625 L 1675.644531 1625.164062 C 1596.273438 1637.371094 1555.582031 1698.179688 1555.582031 1698.179688 C 1585.335938 1632.53125 1665.863281 1615.746094 1665.863281 1615.746094 C 1650.214844 1615.746094 1558.625 1586.75 1558.625 1586.75 C 1471.644531 1550.886719 1383.898438 1557.746094 1383.898438 1557.746094 L 1351.855469 1556.609375 C 1361.753906 1599.722656 1356.433594 1641.324219 1356.433594 1641.324219 L 1377.03125 1731.761719 L 1349.546875 1640.933594 C 1359.484375 1573.769531 1332 1524.9375 1332 1524.9375 C 1307.585938 1474.566406 1269.429688 1434.109375 1269.429688 1434.109375 L 1234.34375 1497.078125 L 1189.304688 1592.863281 C 1189.304688 1592.863281 1212.972656 1534.101562 1228.222656 1491.363281 C 1243.480469 1448.617188 1285.453125 1390.625 1285.453125 1390.625 L 1362.527344 1299.027344 C 1374.542969 1321.164062 1387.847656 1330.066406 1412.378906 1322.191406 C 1436.929688 1314.304688 1454.484375 1294.078125 1454.484375 1294.078125 C 1454.484375 1294.078125 1470.878906 1276.519531 1485.386719 1241.800781 C 1499.871094 1207.082031 1523.914062 1173.5 1523.914062 1173.5 C 1530.023438 1150.59375 1514.375 1140.292969 1514.375 1140.292969 C 1534.722656 1092.457031 1557.625 1050.226562 1557.625 1050.226562 C 1574.113281 1024.585938 1576.0625 1006.625 1575.875 998.589844 L 1526.984375 963.5 L 1578.042969 991.03125 C 1599.078125 967.285156 1603.921875 914.402344 1603.921875 914.402344 C 1607.988281 853.851562 1583.800781 786.1875 1583.800781 786.1875 C 1583.800781 786.1875 1582.292969 780.0625 1538.027344 701.472656 C 1502.523438 638.378906 1458.671875 626.914062 1442.714844 624.84375 L 1418.238281 653.402344 L 1434.257812 619.710938 C 1416.421875 585.785156 1385.359375 583.667969 1374.96875 583.96875 L 1357.757812 619.058594 L 1368.457031 581.433594 C 1334.015625 550.339844 1303 554.183594 1303 554.183594 C 1285.453125 534.34375 1264.664062 549.042969 1264.664062 549.042969 C 1264.664062 549.042969 1272.355469 554.066406 1277.960938 555.972656 C 1277.960938 555.972656 1267.007812 553.648438 1262.59375 547.941406 C 1215.953125 523.34375 1227.207031 547.878906 1227.207031 547.878906 C 1194.65625 525.042969 1195.164062 549.597656 1195.164062 549.597656 L 1209.722656 558.941406 L 1191.230469 548.578125 C 1172.585938 544.554688 1173.03125 559.777344 1173.03125 559.777344 L 1191.023438 569.242188 L 1168.261719 560.179688 C 1046.058594 570.035156 1031.351562 630.121094 1031.351562 630.121094 C 1031.351562 630.121094 1044.320312 653.910156 1084.003906 657.980469 C 1084.003906 657.980469 1050.425781 661.824219 1024.449219 633.128906 C 1005.984375 642.640625 997.300781 660.679688 995.777344 664.195312 C 998.410156 668.308594 1012.523438 687.585938 1047.917969 691.21875 C 1047.917969 691.21875 1015.367188 694.976562 989.574219 667.699219 C 925.933594 701.210938 899.339844 807.921875 899.339844 807.921875 L 871.875 871.410156 C 846.941406 852.832031 833.71875 902.429688 833.71875 902.429688 C 833.71875 902.429688 826.089844 924.058594 805.734375 1001.394531 C 785.390625 1078.742188 845.414062 1075.179688 845.414062 1075.179688 C 816.414062 1163.710938 840.585938 1216.984375 840.585938 1216.984375 L 821.511719 1329.558594 C 816.925781 1369.253906 803.191406 1406.648438 803.191406 1406.648438 C 795.535156 1429.757812 782.355469 1466.875 765.835938 1504.589844 L 748.289062 1525.707031 L 761.765625 1502.035156 C 761.765625 1502.035156 782.703125 1454.5 798.324219 1407.132812 L 749.777344 1411.992188 C 749.777344 1411.992188 660.75 1534.589844 631.761719 1593.097656 C 631.761719 1593.097656 658.714844 1716.226562 658.714844 1777.285156 C 658.714844 1777.285156 639.898438 1647.046875 620.050781 1588.285156 L 662.785156 1521.867188 C 662.785156 1521.867188 598.273438 1545.265625 584.75 1556.847656 C 576.949219 1563.542969 566.457031 1566.148438 556.476562 1568.582031 L 392.980469 1608.585938 C 375.660156 1612.820312 359.703125 1621.257812 346.417969 1633.046875 C 358.621094 1643.140625 381.910156 1673.089844 417.078125 1761.527344 C 417.078125 1761.527344 352.082031 1682.253906 312.4375 1666.304688 L 305.671875 1673 C 271.875 1683.417969 245.472656 1702.574219 224.882812 1727.246094 C 253.382812 1744.96875 350.078125 1811.957031 424.707031 1945.042969 C 424.707031 1945.042969 312.09375 1783.753906 214.847656 1740.34375 C 191.097656 1774.0625 176.402344 1815.820312 167.664062 1859.09375 C 171.117188 1865.007812 175.921875 1872.890625 181.714844 1881.539062 C 202.949219 1913.230469 232.894531 1938.09375 267.808594 1953.460938 C 312.519531 1973.15625 399.847656 2017.828125 443.027344 2082.03125 C 443.027344 2082.03125 361.03125 1995.4375 260.296875 1958.503906 C 230.441406 1947.558594 203.585938 1929.628906 182.460938 1905.882812 C 176.363281 1898.996094 170.007812 1891.1875 163.558594 1882.375 C 162.597656 1888.652344 161.742188 1894.929688 160.988281 1901.214844 L 234.703125 1995.039062 L 158.082031 1931.625 C 154.738281 1978.117188 156.3125 2021.988281 158.835938 2054.917969 C 169.78125 2068.804688 191.6875 2091.796875 225.546875 2106.476562 C 225.546875 2106.476562 189.941406 2102.542969 160.523438 2074.3125 C 162.859375 2098.054688 165.265625 2112.5625 165.265625 2112.5625 L 1029.890625 2112.5625 C 993.304688 2060.523438 970.644531 1991.222656 970.644531 1991.222656 L 948.519531 1946.203125 C 942.945312 1872.375 990.445312 1764.523438 998.792969 1746.265625 C 998.992188 1745.804688 999.15625 1745.339844 999.328125 1744.875 C 985.949219 1774.199219 941.734375 1873.628906 945.277344 1942.652344 C 931.398438 1927.347656 919.636719 1910.578125 909.8125 1893.867188 C 906.851562 1888.84375 904.070312 1883.820312 901.445312 1878.839844 C 905.214844 1863.328125 914.226562 1831.125 929.863281 1802.339844 C 929.863281 1802.339844 907.839844 1833.75 895.386719 1866.839844 C 892.371094 1860.609375 889.621094 1854.515625 887.121094 1848.65625 C 891.464844 1836.65625 897.429688 1823.03125 905.441406 1810.167969 C 905.441406 1810.167969 894.496094 1822.585938 883.960938 1841.070312 C 871.710938 1810.777344 866.613281 1788.476562 866.613281 1788.476562 L 865.042969 1785.570312 C 865.652344 1785.261719 866.277344 1784.988281 866.859375 1784.636719 C 867.769531 1789.402344 869.546875 1794.265625 872.808594 1798.332031 C 877.378906 1804.027344 884.1875 1807.125 892.492188 1807.308594 L 893.425781 1807.308594 C 926.421875 1807.308594 929.574219 1770.847656 930.15625 1726.78125 C 930.183594 1724.921875 930.753906 1723.15625 931.816406 1721.6875 C 937.304688 1714.128906 945.894531 1701.230469 950.0625 1689.484375 C 955.53125 1692.320312 963.523438 1695.371094 972.726562 1695.371094 C 975.332031 1695.371094 977.9375 1695.109375 980.472656 1694.625 L 981 1694.527344 C 981.027344 1694.761719 981.054688 1695 981.097656 1695.226562 C 981.960938 1700.710938 985.066406 1705.34375 989.835938 1708.269531 C 990.960938 1708.96875 992.199219 1709.460938 993.476562 1709.785156 C 993.316406 1711.320312 993.449219 1712.902344 993.886719 1714.4375 C 994.640625 1717.089844 996.785156 1722.085938 1002.542969 1725.109375 C 1000.878906 1728.824219 997.4375 1738.363281 997.113281 1741.433594 C 997.113281 1741.433594 999.054688 1741.152344 1000.433594 1740.433594 C 1002.667969 1729.089844 1015.230469 1723.039062 1023.3125 1720.296875 C 1005.992188 1724.246094 1001.097656 1717.460938 999.753906 1712.738281 C 999.136719 1710.59375 999.753906 1708.269531 1001.1875 1706.554688 L 1013.378906 1692.066406 L 1000.835938 1702.484375 C 998.71875 1704.226562 995.683594 1704.601562 993.304688 1703.226562 C 989.0625 1700.757812 987.609375 1697.132812 987.140625 1694.390625 C 986.785156 1692.246094 987.484375 1690.085938 988.984375 1688.503906 L 1007.65625 1668.785156 L 984.46875 1686.371094 C 982.953125 1687.503906 981.179688 1688.277344 979.308594 1688.648438 C 961.234375 1692.136719 946.230469 1679.855469 946.230469 1679.855469 C 944.660156 1692.363281 932.417969 1710.457031 926.839844 1718.152344 C 925.042969 1720.625 924.089844 1723.59375 924.050781 1726.664062 C 923.417969 1775.804688 918.3125 1801.757812 892.625 1801.195312 C 866.105469 1800.613281 872.972656 1765.894531 872.972656 1765.894531 L 871.691406 1769.59375 C 869.011719 1777.285156 861.574219 1782.382812 853.425781 1781.992188 C 842.019531 1781.410156 835.578125 1774.242188 835.578125 1774.242188 C 826.171875 1763.035156 839.148438 1716.226562 839.148438 1716.226562 C 833.554688 1697.921875 843.726562 1671.972656 843.726562 1671.972656 C 851.355469 1645.511719 897.394531 1592.863281 897.394531 1592.863281 C 905.40625 1575.675781 929.4375 1560.027344 929.4375 1560.027344 C 941.007812 1558.074219 958.566406 1563.257812 971.480469 1568.074219 C 984.96875 1573.097656 998.820312 1577.09375 1012.949219 1579.835938 L 1026.347656 1582.425781 L 995.25 1572.796875 C 991.097656 1571.488281 987.238281 1569.355469 984.042969 1566.402344 C 971.691406 1555.101562 969.375 1541.214844 969.375 1541.214844 C 967.148438 1543.9375 963.714844 1543.519531 960.78125 1542.375 C 957.121094 1540.960938 952.933594 1541.730469 949.945312 1544.285156 C 932.308594 1559.378906 907.613281 1560.398438 896.433594 1559.960938 C 892.71875 1559.816406 889.230469 1561.589844 887.003906 1564.585938 C 872.71875 1583.753906 857.96875 1588.539062 857.96875 1588.539062 C 814.21875 1637.882812 785.726562 1584.46875 785.726562 1584.46875 C 796.925781 1563.613281 831.511719 1540.195312 831.511719 1540.195312 C 834.054688 1524.425781 860.511719 1509.148438 860.511719 1509.148438 C 909.347656 1485.242188 948.519531 1484.222656 948.519531 1484.222656 C 955.078125 1480.035156 961.863281 1476.921875 968.265625 1474.613281 C 985.09375 1468.527344 1003.933594 1472.921875 1016.195312 1485.941406 C 1029.988281 1500.59375 1050.5625 1522.175781 1071.34375 1542.984375 L 1095.957031 1568.417969 L 1074.011719 1537.980469 L 1104.183594 1481.6875 L 1117.15625 1468.453125 L 1169.140625 1397.484375 C 1177.679688 1385.855469 1188.070312 1375.738281 1199.90625 1367.535156 L 1226.460938 1349.113281 C 1232.902344 1344.671875 1240.15625 1341.394531 1247.851562 1340.023438 C 1274.636719 1335.296875 1282.753906 1353.972656 1282.753906 1353.972656 C 1272.308594 1372.8125 1247.777344 1389.34375 1247.777344 1389.34375 L 1246.507812 1392.90625 C 1242.875 1399.972656 1236.296875 1407.601562 1230.621094 1413.460938 C 1223.554688 1420.757812 1217.761719 1429.175781 1213.628906 1438.460938 C 1205.464844 1456.78125 1191.539062 1486.667969 1182.773438 1497.449219 C 1172.539062 1510.101562 1142.820312 1572.171875 1130.761719 1597.796875 C 1131.414062 1598.285156 1132.058594 1598.765625 1132.667969 1599.210938 C 1147.589844 1610.050781 1156.261719 1620.277344 1161.3125 1628.671875 C 1166.84375 1637.910156 1168.171875 1649 1165.398438 1659.371094 C 1150.242188 1716.199219 1144.382812 1825.101562 1144.382812 1825.101562 C 1124.011719 1938.066406 1168.289062 1981.695312 1168.289062 1981.695312 C 1179.421875 1978.179688 1251.621094 2079.035156 1275.261719 2112.5625 L 1807.386719 2112.5625 L 1802.808594 2064.5 " fill-opacity="1" fill-rule="nonzero"/></g></svg>